<?xml version="1.0" encoding="utf-8"?>
<!-- Generator: Adobe Illustrator 15.1.0, SVG Export Plug-In . SVG Version: 6.00 Build 0)  -->
<!DOCTYPE svg PUBLIC "-//W3C//DTD SVG 1.1//EN" "http://www.w3.org/Graphics/SVG/1.1/DTD/svg11.dtd">
<svg version="1.1" id="Layer_1" xmlns="http://www.w3.org/2000/svg" xmlns:xlink="http://www.w3.org/1999/xlink" x="0px" y="0px"
	 width="1920px" height="806px" viewBox="0 0 1920 806" enable-background="new 0 0 1920 806" xml:space="preserve">
<g>
	<path fill="#2E4F5B" d="M868.154,740.722C919,768,979.685,774.519,1002.838,730.846c22.926,40.015,61.842,68.762,97.975,23.351
		c16.631,20.801,38.561,43.23,62.467,32.448c18.475-8.33,24.26-18.602,34.934-35.813c34.654,31.798,90.187,37.264,121.231-1.056
		c1.104,7.309-0.712,42.313,22.891,31.226c83.732-24.43,66.842,40.331,129.898-0.539c14.448,32.05,41.799,25.964,62.518-0.043
		c74.407,48.762,76.361-13.644,91.104-35.416c34.16,34.697,70.556,1.835,64.66-38.893c55.896,13.896,70.063-18.176,84.854-41.086
		c25.146,48.838,47.871-6.203,67.968-31.052C1870.39,671.468,1924,647.56,1930,609.999l0,0V-10H-10v620l0,0
		c0,38.137,49.483,53.188,81.522,41.167c-0.155,42.023,49.784,58.909,80.914,44.271c0.634,47.183,31.339,50.186,73.961,24.571
		c32.855,43.402,78.475,54.962,107.958,20.955c40.047,100.036,80.764-23.935,109.498,27.659C471.923,819.021,487.66,731.434,512,730
		c25.48-1.501,43.019,55.051,59,35c55-69,57.588,4.426,86.349-21.67C704,701,693.179,765.779,716.22,767.118
		c18.814,1.093,36.493-29.766,47.266-21.117C832,801,845.066,728.335,868.154,740.722z"/>
</g>
<g>
	<path fill="#304A56" d="M1711.618,561.152c26.519-38.409,62.03-53.056,73.496-17.759c25.481,78.444,42.981-85.457,80.963-31.604
		c37.729,53.494,63.923-40.43,63.923-70.36V-10H-10v496.822c0,48.005,54.767,45.004,84.77,24.002
		c-6,48.005,33.77,59.257,84.411,22.262c40.498-29.584,16.508,100.042,109.503,10.066c-7.5,82.929,44.994,65.85,80.998,47.848
		c-25.498,78.813,78.897,82.887,100.67,21.585c12.217-34.396,31.666,73.341,80.944-30.164
		c15.001,15.002,10.824,67.078,31.827,76.079c21.002,6.001,26.567-46.246,69.734-12.664c10.048,7.816,27.003-27.003,36.003-39.004
		c23.19,72.713,49.651,1.169,70.653-31.835c3.321,42.003,28.355,76.84,67.359,76.84c21.003,0,51.006-27.003,66.008-42.005
		c-5.815,29.75,4.954,65.786,30.002,72.008c19.533,4.852,26.534-46.347,42.005-51.005c45.947-13.835,75.954,49.82,91.641,41.719
		c41.47-21.419-6.446-74.855,37.71-89.976c20.665-7.075,55.204,63.006,73.206,63.006c24.002-3,16.466-59.754,43.47-41.752
		c12,6,18.002,48.005,27.003,60.006c18.002-15.002,30.003-36.004,42.004-57.006c12.002,24.003,15.595,64.066,39.004,63.007
		c8.479-0.385,24.003-45.005,30.003-45.005c15.002-6.001,27.483,40.237,41.877,46.247c20.461,8.543,13.059-111.562,54.134-70.25
		c79.796,80.25,58.308-73.461,89.256-18.253c66.934,119.396,74.499-46.563,113.431-7.581
		C1692.119,639.58,1695.432,584.599,1711.618,561.152z"/>
</g>
<g>
	<path fill="#30444F" d="M-10,337.811c18,30.003,66.762,36.003,87.764,6c-9,42.005,22.919,89.619,60.023,36.003
		c22.457-32.45,16.986,78.326,66.398,31.756c52.498-49.479,19.503,149.581,113.999,1.929c22.499,62,73.326,78.187,83.645,26.321
		c5.236-26.321,48.523,112.764,90.011,12.001c9.001,15.002,27.004,42.004,45.006,45.005c36.004,9.001,43.599-39.07,66.006-24.003
		c44.459,29.895,120.014,78.008,129.015-18.002c33.003,12.002,53.906,66.68,99.011-9.001c26.155-43.892,15.571,115.331,93.01-9.001
		c52.907,85.456,56.398-22.248,80.563,4.608c77.14,85.745,80.956-42.812,114.456-22.61c50.224,30.28,40.563,24.543,67.521,32.979
		c48.688,15.235,72.092,59.781,105.096-15.226c33.004,39.004,85.414,28.25,91.414-13.755
		c27.535,113.863,102.009-6.998,102.009-6.998c55.83,76.921,87.188-24.004,114.013-6c74.067,49.713,54.005-12.002,75.007-24.002
		c0,0,66.161,112.184,84.161-28.22c54.146,51.686,59.964-26.612,68.82-10.785c49.039,87.629,82.055-21.002,103.055-66.007V-10H-10
		V337.811z"/>
</g>
<g>
	<path fill="#323D49" d="M1281.615,329.818c49.968,73.125,89.188-81.753,135.404-13.854c14.383,21.132,48.241-11.512,55.918-30.157
		c14.627-35.53,17.842,16.781,56.129,19.998c61.563,5.172,71.845-82.185,97.058-57.74c22.854,22.16,136.493,45.035,107.994-24.768
		c24.002,21.002,81.127,36.995,83.819-6.497c3.144-50.747,70.063,62.861,112.063-39.004V-10H-10v193.797
		c15,30.003,51.761,36.004,75.763,12.001c6.001,33.003,31.92,42.469,54.022,18.001c14.503-16.055,23.237,36.982,42.012,51.005
		c19.89,14.856,73.891-17.537,79.891-26.538c16.499,41.394,61.045,71.414,82.132,26.538c7.865-16.74,3.367,83.179,90.635-7.312
		c21.003,57.005,55.263,72.325,107.388,28.314c34.08-28.775,53.313,77.621,90.674,45.177c86.529-75.144,73.931,61.11,148.131-22.212
		c24.025-26.981,29.33,69.615,85.8-2.173c45.476-57.812,28.217,55.498,116.44-5.79c39.731-27.601,0.629,84.291,111.876-7.989
		c6.821,36.999,84.7,55.165,122.146,7.989C1213.203,280.282,1247.341,279.662,1281.615,329.818z"/>
</g>
<g>
	<path fill="#323A44" d="M-10,70.783c35,45.943,73.466-14.646,78.764,12.001c6.405,32.216,42.021,42.004,75.024,6
		c21.002,69.007,61.022,37.037,99.018,33.003c0,0,24.007,30.003,54.01,30.003c24.002,0,45.007-21.002,60.008-42.004
		c30.003,24.002,69.615,59.5,108.013,3c11.885-17.489,60.959,63.64,96.01-18.002c12.506-29.13,49.605,117.697,105.739,14.079
		c21.244-39.217,45.913,62.357,80.279,33.926c89.605-74.133,98.64,45.963,138.015,9.001c34.78-32.649,71.778,36.712,98.78,33.711
		c27.003,0,39.8-10.534,78.785-46.992c17.443-16.313,15.963,2.569,53.706,36.458c9.931,8.916,54.063-10.143,78.064-49.147
		c39.004,33.003,73.554,80.977,105.368,49.147c64.075-64.104,19.859,20.637,98.932,10.628c11.906-1.507,56.421-48.808,62.421-48.808
		c15.002,3,28.796,48.808,43.797,48.808c24.003,0,40.211-57.809,61.213-60.809c24.004-6,40.679,31.961,58.681,31.961
		c15.002,0,28.498-29.157,35.998-60.263c4.276-17.742,40.336,34.302,58.338,31.302c12.001-3,25.354-14.742,27.003-27.003
		c6.154-45.732,47.785,5.494,60.151,10.214c17.729,6.767,43.465-14.513,34.466-45C1873.586,99.003,1903,73.784,1930,52.781V-10H-10
		V70.783z"/>
</g>
</svg>
