<?xml version="1.0" encoding="utf-8"?>
<!-- Generator: Adobe Illustrator 15.1.0, SVG Export Plug-In  -->
<!DOCTYPE svg PUBLIC "-//W3C//DTD SVG 1.1//EN" "http://www.w3.org/Graphics/SVG/1.1/DTD/svg11.dtd" [
	<!ENTITY ns_flows "http://ns.adobe.com/Flows/1.0/">
]>
<svg version="1.1"
	 xmlns="http://www.w3.org/2000/svg" xmlns:xlink="http://www.w3.org/1999/xlink" xmlns:a="http://ns.adobe.com/AdobeSVGViewerExtensions/3.0/"
	 x="0px" y="0px" width="300px" height="300px" viewBox="-14.206 0.108 300 300" enable-background="new -14.206 0.108 300 300"
	 xml:space="preserve">
<defs>
</defs>
<path fill="#6B6B6B" d="M165.74,141.152L249.309,1.395c0,0,16.898-6.55,22.279,8.735l-86.006,140.304L165.74,141.152z"/>
<path fill="#8E8E8E" d="M175.543,145.737l-9.803-4.585L249.309,1.395c0,0,6.604-2.558,12.867-0.747L175.543,145.737z"/>
<path fill="#1E1D1B" d="M48.242,268.974c17.381,17.242,42.93,31.135,80.16,31.135c35.627,0,59.866-12.722,76.3-28.927
	c-17.88,12.558-42.404,21.613-75.99,21.613C93.186,292.795,67.18,282.665,48.242,268.974z"/>
<path fill="#6B6B6B" d="M251.572,196.262c0,0-13.164,77.52-122.86,77.52C19.014,273.781,0,196.262,0,196.262
	s8.703,44.127,48.242,72.712c18.938,13.691,44.943,23.821,80.47,23.821c33.586,0,58.11-9.056,75.99-21.613
	C245.223,242.726,251.572,196.262,251.572,196.262z"/>
<path fill="#1E1D1B" d="M128.712,273.781c109.696,0,122.86-77.52,122.86-77.52s-13.164-77.52-122.86-77.52
	C19.014,118.742,0,196.262,0,196.262S19.014,273.781,128.712,273.781z"/>
<path fill="#DD0B0B" d="M68.208,256.267l55.103-33.252c0,0-19.532-20.1-41.656-6.751C54.103,232.891,68.208,256.267,68.208,256.267z
	"/>
<path fill="#EA3636" d="M92.644,234.475c10.016-6.045,15.153-3.903,21.329-9.243c4.566-3.945-9.754-13.329-27.943-1.715
	c-18.188,11.616-19.096,24.976-14.793,27.506C75.542,253.551,82.156,240.803,92.644,234.475z"/>
<path fill="#FFFFFF" d="M76.709,245.581c0,0-6.726,0.531-5.158-3.24C73.12,238.567,76.709,245.581,76.709,245.581z"/>
<path fill="#FFFFFF" d="M85.048,237.106c0,0-9.865-1.56-5.927-5.577C83.217,227.349,85.048,237.106,85.048,237.106z"/>
<path fill="#FFFFFF" d="M95.379,230.869c0,0-8.908-5.206-2.875-7.598C98.536,220.883,95.379,230.869,95.379,230.869z"/>
<path fill="#FFFFFF" d="M107.137,225.939c0,0-4.432-5.475-0.446-5.342C111.047,220.738,107.137,225.939,107.137,225.939z"/>
<path fill="#DD0B0B" d="M196.877,217.495l-33.756,39.019c0,0,19.877,10.475,33.43-5.189
	C213.43,231.816,196.877,217.495,196.877,217.495z"/>
<path fill="#EA3636" d="M183.654,240.168c-6.135,7.094-10.58,6.737-13.965,12.339c-2.502,4.141,10.744,7.743,21.729-5.625
	c10.984-13.365,8.357-23.778,4.453-24.64C191.965,221.383,190.082,232.741,183.654,240.168z"/>
<path fill="#FFFFFF" d="M193.047,227.748c0,0,4.998-2.073,4.738,1.191C197.525,232.203,193.047,227.748,193.047,227.748z"/>
<path fill="#FFFFFF" d="M188.793,236.279c0,0,7.908-1.261,5.904,2.779C192.611,243.263,188.793,236.279,188.793,236.279z"/>
<path fill="#FFFFFF" d="M182.467,243.595c0,0,8.08,1.759,4.076,5.079C182.537,251.992,182.467,243.595,182.467,243.595z"/>
<path fill="#FFFFFF" d="M174.725,250.27c0,0,4.738,3.074,1.666,3.965C173.033,255.204,174.725,250.27,174.725,250.27z"/>
<path fill="#DD0B0B" d="M170.141,164.686l-24.4,29.273c0,0,14.82,7.467,24.619-4.284
	C182.559,175.036,170.141,164.686,170.141,164.686z"/>
<path fill="#EA3636" d="M160.684,181.61c-4.436,5.321-7.725,5.117-10.146,9.3c-1.791,3.091,8.037,5.573,15.969-4.448
	c7.932-10.019,5.854-17.676,2.955-18.256C166.566,167.623,165.33,176.037,160.684,181.61z"/>
<path fill="#FFFFFF" d="M167.453,172.31c0,0,3.66-1.599,3.512,0.815C170.818,175.539,167.453,172.31,167.453,172.31z"/>
<path fill="#FFFFFF" d="M164.426,178.668c0,0,5.82-1.041,4.398,1.974C167.34,183.771,164.426,178.668,164.426,178.668z"/>
<path fill="#FFFFFF" d="M159.852,184.156c0,0,5.992,1.19,3.08,3.694C160.018,190.357,159.852,184.156,159.852,184.156z"/>
<path fill="#FFFFFF" d="M154.227,189.191c0,0,3.541,2.205,1.281,2.906C153.043,192.857,154.227,189.191,154.227,189.191z"/>
<path fill="#DD0B0B" d="M236.154,172.815l-29.777,13.514c0,0,8.668,11.298,20.621,5.875
	C241.885,185.444,236.154,172.815,236.154,172.815z"/>
<path fill="#EA3636" d="M222.531,182.364c-5.412,2.457-7.879,1.072-11.311,3.398c-2.535,1.721,4.133,7.305,14,2.521
	c9.863-4.78,11.113-11.474,9.094-13.003C232.295,173.751,228.199,179.79,222.531,182.364z"/>
<path fill="#FFFFFF" d="M231.229,177.701c0,0,3.428,0.133,2.412,1.942C232.627,181.454,231.229,177.701,231.229,177.701z"/>
<path fill="#FFFFFF" d="M226.518,181.486c0,0,4.889,1.369,2.664,3.164C226.867,186.517,226.518,181.486,226.518,181.486z"/>
<path fill="#FFFFFF" d="M220.938,184.021c0,0,4.186,3.152,1.002,4.004C218.754,188.873,220.938,184.021,220.938,184.021z"/>
<path fill="#FFFFFF" d="M214.715,185.812c0,0,1.912,3.025-0.096,2.722C212.43,188.203,214.715,185.812,214.715,185.812z"/>
<path fill="#E2C0AA" d="M33.054,208.934c-16.015,8.047-10.05,26.861-1.386,28.032c4.459,0.601,5.457-4.479,5.458-4.49
	c0,0,2.746,10.564,5.823,11.586c3.259,1.077,11.19-2.909,12.269-6.165c1.019-3.077-5.823-11.588-5.823-11.588
	s4.615,2.578,6.763-2.118C59.682,216.48,45.719,202.569,33.054,208.934z"/>
<path fill="#8E725E" d="M35.987,229.078l-1.415-2.811c0,0-5.857,0.006-5.257,4.256c0.582,4.153,5.857,3.039,5.857,3.039
	s-3.671-0.305-2.892-3.279C32.613,229.002,34.15,228.296,35.987,229.078z"/>
<path fill="#8E725E" d="M47.504,223.292l-1.415-2.811c0,0,3.387-4.639,6.44-1.621c2.984,2.944-1.117,6.543-1.117,6.543
	s2.035-3.171-0.818-4.324C49.367,220.584,47.971,221.352,47.504,223.292z"/>
<path fill="#E2C0AA" d="M162.541,130.18c-11.949-8.589-23.367,2.916-20.922,9.662c1.262,3.473,5.336,2.266,5.346,2.264
	c0,0-6.641,6.018-6.213,8.646c0.457,2.78,6.375,7.033,9.156,6.58c2.627-0.432,6.213-8.647,6.213-8.647s-0.119,4.339,4.115,4.112
	C167.186,152.426,171.992,136.971,162.541,130.18z"/>
<path fill="#8E725E" d="M149.002,139.981l1.506-2.097c0,0-2.232-4.258-5.096-2.206c-2.799,2.003,0.018,5.418,0.018,5.418
	s-1.176-2.786,1.287-3.352C147.773,137.499,148.873,138.348,149.002,139.981z"/>
<path fill="#8E725E" d="M157.596,146.158l1.506-2.099c0,0,4.664,0.698,3.633,4.068c-1.008,3.292-5.186,1.676-5.186,1.676
	s3.08,0.273,2.832-2.24C160.275,146.482,159.184,145.76,157.596,146.158z"/>
<path fill="#E2C0AA" d="M227.191,231.013c13.08-6.741,8.021-22.139,0.9-23.027c-3.668-0.454-4.443,3.726-4.445,3.735
	c0,0-2.346-8.651-4.881-9.465c-2.684-0.855-9.16,2.483-10.021,5.168c-0.809,2.536,4.881,9.463,4.881,9.463s-3.811-2.076-5.533,1.798
	C205.264,225.046,216.85,236.349,227.191,231.013z"/>
<path fill="#8E725E" d="M224.611,214.499l1.184,2.297c0,0,4.809-0.055,4.281-3.54c-0.512-3.406-4.834-2.445-4.834-2.445
	s3.016,0.219,2.402,2.669C227.381,214.532,226.125,215.126,224.611,214.499z"/>
<path fill="#8E725E" d="M215.205,219.348l1.186,2.295c0,0-2.74,3.839-5.273,1.39c-2.475-2.395,0.861-5.383,0.861-5.383
	s-1.645,2.622,0.709,3.543C213.699,221.59,214.838,220.945,215.205,219.348z"/>
<path fill="#E2C0AA" d="M73.002,191.325c-1.269,10.13,9.528,13.269,12.827,9.541c1.697-1.921-0.39-4.002-0.396-4.008
	c0,0,5.871,2.051,7.33,0.916c1.541-1.2,2.168-6.216,0.97-7.76c-1.135-1.457-7.33-0.916-7.33-0.916s2.683-1.366,1.141-3.871
	C85.013,181.116,74.003,183.316,73.002,191.325z"/>
<path fill="#8E725E" d="M83.466,196.321l-1.779-0.222c0,0-1.853,2.773,0.347,3.839c2.152,1.04,3.296-1.811,3.296-1.811
	s-1.308,1.641-2.471,0.329C82.359,197.895,82.513,196.943,83.466,196.321z"/>
<path fill="#8E725E" d="M84.376,189.039l-1.777-0.223c0,0-1.123-3.071,1.272-3.561c2.339-0.479,2.743,2.601,2.743,2.601
	s-0.857-1.968-2.306-0.982C83.685,187.299,83.605,188.203,84.376,189.039z"/>
<path fill="#C91717" d="M107.803,133.677c-6.581-14.47-25.925-0.604-28.253,0.171c0,0-11.539-4.304-16.189,12.232
	c-4.703,16.717,10.378,16.666,13.09,19.637c2.713,2.97,8.874,13.597,19.338,8.43c10.465-5.168,8.139-18.118,8.914-20.833
	C105.477,150.601,114.381,148.147,107.803,133.677z M91.138,150.601c0,0,19.128,8.397,3.62,17.958
	c-15.508,9.561-11.76-11.238-11.76-11.238s-19.25,8.008-14.986-7.235c4.263-15.244,15.761-6.589,15.761-6.589
	s5.942-19.17,18.346-6.225C114.52,150.214,91.138,150.601,91.138,150.601z"/>
<path fill="#6AD34C" d="M127.744,171.717c-2.238-0.627-10.309-7.852-18.447-2.747c-8.139,5.104-3.35,14.007-2.443,17.193
	c0.914,3.185-5.632,13.729,8.109,17.649c13.602,3.884,15.563-6.066,15.563-6.066c1.548-1.294,19.618-8.864,12.319-19.722
	S129.98,172.344,127.744,171.717z M137.873,180.456c3.717,14.279-12.283,10.169-12.283,10.169s1.102,11.796-11.426,8.202
	c-12.521-3.595,1.402-13.628,1.402-13.628s-16.195-6.354-2.801-13.098c13.396-6.737,11.023,10.295,11.023,10.295
	S134.156,166.173,137.873,180.456z"/>
<path fill="#F7C114" d="M139.467,219.864c-0.232,2.586-6.52,12.933,0.756,20.833c7.271,7.9,16.074,0.818,19.391-0.833
	c3.313-1.654,16.24,3.382,17.736-12.521c1.486-15.738-9.848-15.862-9.848-15.862c-1.74-1.436-13.754-19.744-24.191-9.504
	C132.871,212.221,139.699,217.277,139.467,219.864z M146.998,206.946c14.932-7.007,13.688,11.419,13.688,11.419
	s12.736-3.623,11.35,10.875c-1.389,14.497-15.264,1.248-15.264,1.248s-3.67,19.094-13.818,5.754
	c-10.143-13.344,9.059-14.217,9.059-14.217S132.064,213.95,146.998,206.946z"/>
<path fill="#F7C114" d="M25.405,175.807c-1.071,2.366-10.415,10.066-6.147,19.923c4.266,9.852,14.911,6.063,18.584,5.595
	c3.672-0.47,14.22,8.541,20.872-5.981c6.583-14.374-4.078-18.222-4.078-18.222c-1.171-1.928-6.486-23.171-19.715-16.936
	C21.693,166.419,26.476,173.443,25.405,175.807z M36.768,166.09c16.405-1.7,9.165,15.287,9.165,15.287s13.219,0.773,7.136,14.006
	c-6.084,13.232-14.823-3.848-14.823-3.848s-9.751,16.824-14.941,0.887c-5.187-15.94,13.231-10.444,13.231-10.444
	S20.36,167.785,36.768,166.09z"/>
<path fill="#C91717" d="M112.5,238.695c-10.194,2.924-2.938,17.054-2.656,18.666c0,0-3.973,7.195,6.484,11.887
	c10.576,4.743,12.021-5.215,14.248-6.714c2.229-1.499,9.848-4.524,7.461-11.938c-2.383-7.416-11.16-7.151-12.877-7.928
	C123.445,241.892,122.699,235.772,112.5,238.695z M122.038,251.356c0,0,7.422-11.805,12.212-0.629c4.789,11.173-8.57,6.66-8.57,6.66
	s3.395,13.493-6.25,9.185s-2.804-11.053-2.804-11.053s-12.071-5.802-2.31-12.718C124.077,235.884,122.038,251.356,122.038,251.356z"
	/>
<path fill="#6AD34C" d="M200.645,144.301c-2.281-0.547-10.719-7.535-18.75-2.063c-8.027,5.47-2.846,14.286-1.801,17.468
	c1.041,3.18-5.166,14.091,8.879,17.525c13.891,3.398,15.492-6.731,15.492-6.731c1.51-1.368,19.48-9.717,11.688-20.408
	C208.352,139.401,202.932,144.851,200.645,144.301z M211.221,152.744c4.305,14.286-12.023,10.747-12.023,10.747
	s1.568,11.881-11.227,8.729c-12.797-3.147,0.887-13.826,0.887-13.826s-16.609-5.796-3.332-13.124s11.535,9.977,11.535,9.977
	S206.91,138.456,211.221,152.744z"/>
</svg>
