<?xml version="1.0" encoding="utf-8"?>
<!-- Generator: Adobe Illustrator 15.1.0, SVG Export Plug-In  -->
<!DOCTYPE svg PUBLIC "-//W3C//DTD SVG 1.1//EN" "http://www.w3.org/Graphics/SVG/1.1/DTD/svg11.dtd" [
	<!ENTITY ns_flows "http://ns.adobe.com/Flows/1.0/">
]>
<svg version="1.1"
	 xmlns="http://www.w3.org/2000/svg" xmlns:xlink="http://www.w3.org/1999/xlink" xmlns:a="http://ns.adobe.com/AdobeSVGViewerExtensions/3.0/"
	 x="0px" y="0px" width="300px" height="300px" viewBox="0.482 0.051 300 300" enable-background="new 0.482 0.051 300 300"
	 xml:space="preserve">
<defs>
</defs>
<path fill="none" d="M24.41,144.071c0,52.643,16.072,75.711,44.072,74.507v-15.807V78.446v-7.672
	C40.482,69.602,24.41,91.922,24.41,144.071z"/>
<path fill="#99100D" d="M133.482,243.051h-7v-39h7V0.222c-19,0.233-36.69,0.668-53.699,1.486
	c-4.907,0.232-11.301,2.875-11.301,9.869v29.515v5.46C32.482,52.293,0,86.404,0,144.698c0,58.293,32.482,92.406,68.482,98.125
	v29.197c0,23.594,72.539,29.031,116.037,29.031c0.084,0,0.173,0,0.255,0c-15.396,0-34.292-1.033-51.292-2.897V243.051z
	 M68.482,78.446v124.326v15.807c-28,1.204-44.072-21.864-44.072-74.507c0-52.149,16.072-74.47,44.072-73.297V78.446z
	 M122.482,243.051h-9.652l-0.012-26.207l-3.513,26.207h-6.257l-3.704-25.606l-0.013,25.606h-6.85v-39h11.087
	c0.388,3,0.787,5.049,1.198,8.217l1.434,9.893l2.319-18.109h13.961V243.051z"/>
<path fill="#A51207" d="M291.189,1.753c-32.527-1.563-67.454-1.702-105.074-1.702c-0.274,0-0.558,0-0.833,0
	c-0.381,0-0.773,0-1.156,0c-3.868,0-7.816-0.042-11.813-0.036c-1.035,0.002-1.557-0.017-2.598-0.015
	c-12.879,0.026-26.232,0.065-36.232,0.21v0.012v203.83h9v7h-5v8h5v8h-5v8h5v8h-9v55.103c17,1.864,35.896,2.897,51.292,2.897
	c0.06,0,0.123,0,0.181,0c43.469,0,116.527-5.438,116.527-29.031V11.577C301.482,4.583,296.068,1.985,291.189,1.753z M265.711,236.42
	c0.262,0.417,0.646,0.624,1.317,0.624c0.673,0,1.134-0.263,1.46-0.793c0.326-0.525,0.472-1.31,0.472-2.347
	c0-2.287-0.323-3.781-0.949-4.485c-0.639-0.704-2.217-1.878-4.726-3.525c-2.51-1.661-4.177-2.868-4.992-3.619
	c-0.815-0.753-1.489-1.79-2.024-3.117c-0.536-1.327-0.806-3.021-0.806-5.083c0-2.973,0.38-5.146,1.138-6.521
	c0.759-1.374,1.987-2.449,3.683-3.225c1.691-0.774,3.739-1.164,6.138-1.164c2.62,0,4.854,0.425,6.702,1.271
	c1.846,0.849,2.967,1.915,3.564,3.201c0.598,1.288,0.795,3.473,0.795,6.558v0.856h-9v-2.2c0-1.342-0.205-2.195-0.441-2.564
	c-0.242-0.368-0.684-0.551-1.244-0.551c-0.606,0-1.088,0.247-1.398,0.742c-0.312,0.497-0.479,1.249-0.479,2.257
	c0,1.296,0.168,2.271,0.519,2.926c0.335,0.657,1.284,1.448,2.852,2.373c4.493,2.669,7.322,4.856,8.49,6.567
	c1.166,1.709,1.748,4.468,1.748,8.271c0,2.766-0.321,4.804-0.97,6.116c-0.648,1.31-1.899,2.407-3.753,3.295
	c-1.856,0.888-4.012,1.33-6.476,1.33c-2.701,0-5.005-0.512-6.916-1.533c-1.91-1.023-2.808-2.325-3.398-3.909
	c-0.591-1.581-0.533-3.827-0.533-6.737v-3.382h9v5.565C265.482,235.07,265.447,236.004,265.711,236.42z M242.604,210.574
	c-0.191-0.56-0.942-0.838-1.66-0.838c-0.626,0-0.975,0.238-1.197,0.718c-0.226,0.479-0.264,1.711-0.264,3.694v18.628
	c0,1.741-0.111,2.889,0.115,3.44c0.223,0.551,0.56,0.828,1.231,0.828c0.732,0,1.617-0.313,1.879-0.936
	c0.264-0.624,0.774-1.839,0.774-3.644v-4.414h-3v-5h12v20h-6.431l-0.934-2.909c-0.69,1.201-1.557,2.036-2.604,2.636
	c-1.047,0.6-2.282,0.867-3.705,0.867c-1.698,0-3.283-0.43-4.764-1.252c-1.482-0.822-2.604-1.85-3.373-3.064
	c-0.768-1.215-1.479-2.49-1.67-3.826c-0.191-1.334-0.52-3.342-0.52-6.01v-11.534c0-3.707,0.432-6.4,0.83-8.08
	c0.398-1.677,1.661-3.215,3.558-4.615c1.894-1.397,4.399-2.099,7.407-2.099c2.957,0,5.438,0.608,7.388,1.822
	c1.952,1.217,3.279,2.658,3.87,4.329c0.592,1.671,0.947,4.095,0.947,7.274v2.461h-9v-4.305
	C243.482,212.525,242.795,211.134,242.604,210.574z M190.482,46.051v38h-11v-38H190.482z M133.701,126.385
	c-3.772-37.664,47.981-39.867,50.755,1.54c-3.343-32.554,53.919-43.098,49.822-4.816c-3.073,28.695-25.711,48.554-50.796,68.075
	C157.854,173.236,136.734,156.841,133.701,126.385z M224.482,204.051v39h-8.147l-4.853-17.899v17.899h-8v-39h7.603l5.397,17.408
	v-17.408H224.482z M199.482,204.051v39h-9v-39H199.482z M163.482,243.051h-17v-39h17v7h-8v8h7v8h-7v8h8V243.051z M179.482,243.051
	h-9v-32h-7v-7h23v7h-7V243.051z"/>
<path fill="#FFFFFF" d="M106.202,222.142l-1.434-9.854c-0.412-3.171-0.811-5.236-1.198-8.236H92.482v39h6.85l0.013-25.606
	l3.704,25.606h6.257l3.513-26.207l0.012,26.207h9.652v-39h-13.961L106.202,222.142z"/>
<polygon fill="#FFFFFF" points="126.482,243.051 132.444,243.051 142.482,243.051 142.482,235.051 137.482,235.051 137.482,227.051 
	142.482,227.051 142.482,219.051 137.482,219.051 137.482,211.051 142.482,211.051 142.482,204.051 132.444,204.051 
	126.482,204.051 "/>
<polygon fill="#FFFFFF" points="155.482,227.051 162.482,227.051 162.482,219.051 155.482,219.051 155.482,211.051 163.482,211.051 
	163.482,204.051 146.482,204.051 146.482,243.051 163.482,243.051 163.482,235.051 155.482,235.051 "/>
<polygon fill="#FFFFFF" points="186.482,204.051 163.482,204.051 163.482,211.051 170.482,211.051 170.482,243.051 179.482,243.051 
	179.482,211.051 186.482,211.051 "/>
<rect x="190.482" y="204.051" fill="#FFFFFF" width="9" height="39"/>
<polygon fill="#FFFFFF" points="211.085,204.051 203.482,204.051 203.482,243.051 211.482,243.051 211.482,225.152 216.335,243.051 
	224.482,243.051 224.482,204.051 216.482,204.051 216.482,221.459 "/>
<path fill="#FFFFFF" d="M252.482,219.051v-2.461c0-3.18-0.34-5.604-0.932-7.274c-0.59-1.671-1.883-3.112-3.833-4.329
	c-1.951-1.214-4.416-1.822-7.372-1.822c-3.008,0-5.46,0.701-7.355,2.099c-1.895,1.4-3.274,2.938-3.674,4.615
	c-0.398,1.68-0.834,4.373-0.834,8.08v11.534c0,2.668,0.328,4.671,0.52,6.005c0.191,1.336,0.788,2.609,1.555,3.822
	c0.77,1.217,1.949,2.235,3.43,3.059c1.48,0.822,3.095,1.234,4.794,1.234c1.424,0,2.673-0.299,3.721-0.898
	c1.047-0.599,1.921-1.371,2.611-2.572l0.939,2.909h6.431v-20h-12v5h3v4.414c0,1.805-0.566,3.02-0.83,3.644
	c-0.262,0.622-0.982,0.936-1.716,0.936c-0.671,0-1.008-0.277-1.23-0.828c-0.226-0.552-0.224-1.699-0.224-3.44v-18.628
	c0-1.983-0.111-3.215,0.115-3.694c0.223-0.479,0.536-0.718,1.159-0.718c0.719,0,1.71,0.278,1.901,0.838
	c0.193,0.561,0.824,1.951,0.824,4.173v4.305H252.482z"/>
<path fill="#FFFFFF" d="M256.482,228.051v3.382c0,2.91-0.059,5.156,0.533,6.737c0.59,1.584,1.663,2.886,3.575,3.909
	c1.909,1.021,4.126,1.533,6.827,1.533c2.462,0,4.576-0.442,6.432-1.33c1.854-0.888,3.081-1.985,3.729-3.295
	c0.648-1.313,0.959-3.351,0.959-6.116c0-3.803-0.586-6.562-1.753-8.271c-1.167-1.711-4.001-3.898-8.494-6.567
	c-1.567-0.925-2.521-1.716-2.855-2.373c-0.352-0.655-0.525-1.63-0.525-2.926c0-1.008,0.157-1.76,0.468-2.257
	c0.311-0.495,0.771-0.742,1.377-0.742c0.56,0,1.044,0.183,1.286,0.551c0.237,0.369,0.441,1.223,0.441,2.564v2.2h9v-0.856
	c0-3.085-0.195-5.27-0.793-6.558c-0.6-1.286-1.772-2.353-3.618-3.201c-1.849-0.847-4.058-1.271-6.677-1.271
	c-2.398,0-4.434,0.39-6.125,1.164c-1.695,0.775-2.916,1.851-3.675,3.225c-0.758,1.376-1.134,3.549-1.134,6.521
	c0,2.063,0.267,3.756,0.803,5.083c0.535,1.327,1.213,2.364,2.027,3.117c0.814,0.751,2.479,1.958,4.988,3.619
	c2.508,1.647,4.083,2.821,4.722,3.525c0.626,0.704,0.937,2.198,0.937,4.485c0,1.037-0.164,1.821-0.491,2.347
	c-0.327,0.53-0.829,0.793-1.5,0.793s-0.974-0.207-1.235-0.624c-0.264-0.416-0.229-1.351-0.229-2.804v-5.565H256.482z"/>
<rect x="179.482" y="46.051" fill="#FFFFFF" width="11" height="38"/>
<path fill="#FFFFFF" d="M183.482,191.184c25.085-19.521,47.723-39.38,50.796-68.075c4.097-38.282-53.165-27.738-49.822,4.816
	c-2.773-41.407-54.527-39.204-50.755-1.54C136.734,156.841,157.854,173.236,183.482,191.184z"/>
</svg>
