<?xml version="1.0" encoding="utf-8"?>
<!-- Generator: Adobe Illustrator 15.1.0, SVG Export Plug-In  -->
<!DOCTYPE svg PUBLIC "-//W3C//DTD SVG 1.1//EN" "http://www.w3.org/Graphics/SVG/1.1/DTD/svg11.dtd" [
	<!ENTITY ns_flows "http://ns.adobe.com/Flows/1.0/">
]>
<svg version="1.1"
	 xmlns="http://www.w3.org/2000/svg" xmlns:xlink="http://www.w3.org/1999/xlink" xmlns:a="http://ns.adobe.com/AdobeSVGViewerExtensions/3.0/"
	 x="0px" y="0px" width="2100px" height="325px" viewBox="8 -2.189 2100 325" enable-background="new 8 -2.189 2100 325"
	 xml:space="preserve">
<defs>
</defs>
<path fill="#30444F" d="M2115,332.811c0,0,0-228.413,0-256.572c0-40.027-64.251-86.748-112.53-19.808
	c-63.641-40.237-60.616,14.069-95.165,0.388c-16.029-6.35-23.934-64.518-85.551-14.354c-24.193-42.521-72.014-12.008-100.4,6.05
	c-20.324-35.138-62.424-20.97-90.073-0.36c-6.642-36.116-35.549-28.445-55.203-3.424c-26.882-60.88-127.078-61.352-140.285,9.308
	c-17.999-37.836-50.465-21.871-76.54-0.153c-3.615-27.693-26.096-25.72-52.281-14.093c-13.719-48.167-81.824-20.419-95.184,14.734
	c-25.478-34.795-66.604-25.631-104.962-16.787c-12.209-43.938-67.607-28.459-98.752-12.087
	c-13.241-36.271-60.392-20.588-88.209-6.047c-24.052-33.598-74.99-15.675-90.035,16.246c-30.531-14-49.342-0.729-76.05,13.438
	c6.58-38.848-54.807-27.295-89.869-19.24c-100.549-72.681-65.317,27.266-115.362,3.661c-39.156-18.469-73.635-27.941-120.415,6.939
	c-44.722-62.434-95.195,19.86-91.822-1.084c8.191-50.859-83.804-48.452-137.894,0.693c-21.488-43.105-79.224-0.809-114.3,3.475
	C79.934,5.985,0,0,0,76.239v256.572H2115z"/>
<g>
	<path fill="#323D49" d="M1936.291,170.433c29.628,0,53.617-64.979,79.337-59.311c46.083,10.157,31.257,73.654,54.302,70.361
		c19.753-3.292,18.07-23.044,45.07-19.751v171.078H0V158.44c55.167-65.202,70.672,44.382,114.292-23.045
		c25.53-39.465,41.583,28.74,64.627,28.74c23.045,0,28.067-47.846,62.54-70.304c41.146-26.807,20.977,58.024,47.314,61.316
		c16.46,0,34.973-34.815,54.725-34.815c19.753,0,34.161,41.4,50.622,38.107c23.044-3.292,23.044-36.213,39.505-39.505
		c29.629-6.584,51.341,27.918,77.678,27.918c26.337,0,31.334-51.401,64.255-48.109c16.46,3.291,19.379,49.819,39.132,53.112
		c19.753,0,61.577-65.171,72.782-53.112c52.55,56.553,66.224,8.121,114.867,8.121c17.781,0,0.884,37.923,52.674,36.212
		c10.405-0.344,36.907-38.111,46.575-40.133c57.709-12.07,22.771,61.191,98.277,45.619c22.57-4.654,37.858-41.564,60.903-38.272
		c23.044,6.584,42.351,76.506,57.903,51.288c59.54-96.542,54.311,32.169,141.27-34.959c36.01-27.798,51.748-8.648,80.277,13.297
		c28.528,21.944,50.84,48.687,72.256,19.623c38.533-56.339,80.371-24.621,111.777-5.359c36.802,22.571,52.155-34.041,81.804-12.053
		c76.272,56.568,66.307,0.194,85.147-10.024c34.151-18.521,48.415,55.7,90.111,49.313c41.695-6.388,26.943-56.49,63.152-55.41
		C1880.675,127.085,1894.484,160.429,1936.291,170.433z"/>
</g>
<g>
	<path fill="#323A44" d="M2115,262.692v70.119H0v-63.536c43.89,0.515,53.103-38.501,81.372-29.628
		c23.339,7.326,9.876,29.628,19.752,29.628c16.46,3.293,31.016-53.571,47.477-56.863c19.752-3.292,34.39,50.514,77.905,22.966
		c31.008-19.631,25.789,52.428,91.896-5.606c23.47-20.604,48.549,34.647,78.178,37.94c49.381,9.875,43.89-107.144,145.684,1.563
		c9.547,10.195,33.707-25.061,42.797-23.044c37.619,8.346,64.666,33.31,86.929,26.509c16.459-5.028,23.042-43.047,32.917-43.047
		c42.797-3.292,58.154,59.248,117.183,6.661c28.773-25.631,19.753,39.506,65.842,32.921c29.63-3.292,52.674-46.089,79.011-46.089
		c26.336-3.292,36.213,26.336,62.55,26.336c23.044,0,23.044-39.504,59.257-26.336c19.752,6.585,16.461,46.089,42.797,55.965
		c23.045,6.585,64.388-56.578,79.011-36.212c57.24,79.715,55.965-6.585,92.178-9.877c42.797,0,57.229,24.773,96.732,34.649
		c82.303,16.461,48.806-68.102,148.657-3.504c34.99,22.637,83.293-64.129,125.207-17.234c44.34,49.607,87.004-33.663,116.633-30.372
		c16.46,3.293,26.336,42.798,42.797,49.382c6.584,3.292,39.974-40.484,72.892-27.317c32.743,13.098,23.78,45.591,40.21,44.581
		c29.662-1.821,62.808-42.62,72.593-41.286C2042.596,245.252,2020,340.48,2115,262.692z"/>
</g>
</svg>
