<?xml version="1.0" encoding="utf-8"?>
<!-- Generator: Adobe Illustrator 15.1.0, SVG Export Plug-In . SVG Version: 6.00 Build 0)  -->
<!DOCTYPE svg PUBLIC "-//W3C//DTD SVG 1.1//EN" "http://www.w3.org/Graphics/SVG/1.1/DTD/svg11.dtd">
<svg version="1.1" id="Layer_1" xmlns="http://www.w3.org/2000/svg" xmlns:xlink="http://www.w3.org/1999/xlink" x="0px" y="0px"
	 width="1075px" height="286px" viewBox="0 0 1075 286" enable-background="new 0 0 1075 286" xml:space="preserve">
<path fill="#C42F12" d="M803.16,67.607c-0.084-3.26-0.873-6.588-1.427-9.771c-2.244-12.893-4.619-25.768-7.169-38.604
	c-1.785-8.996-5.735-14.26-14.703-17.141c-11.225-3.604-23.788-1.968-35.045,0.549c-25.535,5.71-49.074,19.427-70.714,33.667
	c-19.606,12.905-38.421,27.18-56.956,41.571c-21.65,16.81-42.714,34.408-63.021,52.818c-9.153,8.298-18.223,16.781-26.953,25.591
	c-4.588-5.861-9.361-11.554-14.153-17.103c-8.676-10.045-17.774-19.715-26.896-29.354c-4.01-4.237-7.889-8.578-12.239-12.471
	C453.943,79.511,430,64.708,405.725,53.6c-6.481-2.967-13.125-5.51-19.928-7.645c-2.663-0.836-5.355-1.588-8.062-2.295
	c2.064-0.723-62.724-16.292-61.836-14.78c-2.235-0.46-4.473-0.904-6.714-1.326c-9.588-1.807-20.965-2.519-28.82,4.358
	c-9.259,8.106-8.295,23.109-6.72,34.035c2.717,18.854,10.313,36.122,22.241,50.948c24.02,29.854,61.133,47.015,96.899,58.188
	c17.878,5.585,36.268,9.644,54.463,13.999c18.445,4.416,36.921,8.999,55.63,12.188c0.254,0.043,0.51,0.082,0.765,0.125
	c0.525,2.912,1.061,5.823,1.597,8.734c1.066,5.795,2.149,11.587,3.275,17.372c-0.043-0.224,1.743,6.866,1.501,7.169
	c5.024-6.299,10.33-12.368,15.809-18.284c0.283,1.121,0.519,1.804,0.676,1.8c95.904-1.518,199.797-32.15,259.704-111.76
	c6.265-8.325,11.876-17.525,15.164-27.459C802.579,75.3,803.26,71.468,803.16,67.607z M426.469,165.3
	c-33.541-15.125-32.347-14.038-67.86-39.34c-15.017-10.699-32.517-33.286-33.712-51.656c-0.682-10.493,1.03-22.801,10.929-28.581
	c0.494-0.289,1-0.547,1.513-0.791c14.402,7.776,44.095,24.037,56.879,33.745c9.568,7.266,21.179,15.822,29.865,24.091
	c19.052,18.139,21.042,19.905,39.331,40.944c10.507,12.087,14.938,14.589,32.148,34.333
	C475.152,174.592,438.645,170.792,426.469,165.3z M711.44,117.071c-39.157,24.725-108.313,53.021-153.881,60.309
	c12.346-10.649,49.034-34.86,61.815-44.972c18.229-14.421,36.873-28.465,56.002-41.672c21.604-14.914,44.647-28.756,69.852-36.6
	c11.902-3.705,24.632-5.895,37.074-4.282c-4.587,7.093-9.906,13.727-15.401,20.11C751.003,88.436,732.014,104.081,711.44,117.071z"
	/>
<path fill="#ED522E" d="M1075,282c0,2.209-1.791,4-4,4H4c-2.209,0-4-1.791-4-4v-89c0-2.209,1.791-4,4-4h1067c2.209,0,4,1.791,4,4
	V282z"/>
<circle fill="#FFFFFF" cx="22.344" cy="257.811" r="9.93"/>
<circle fill="#FFFFFF" cx="60.344" cy="219.811" r="9.93"/>
<circle fill="#FFFFFF" cx="190.344" cy="247.811" r="9.93"/>
<circle fill="#FFFFFF" cx="111.344" cy="237.811" r="9.93"/>
<circle fill="#FFFFFF" cx="317.344" cy="247.811" r="9.93"/>
<circle fill="#FFFFFF" cx="630.343" cy="219.811" r="9.93"/>
<circle fill="#FFFFFF" cx="541.343" cy="199.811" r="9.93"/>
<circle fill="#FFFFFF" cx="572.343" cy="271.811" r="9.93"/>
<circle fill="#FFFFFF" cx="414.343" cy="209.811" r="9.93"/>
<circle fill="#FFFFFF" cx="254.343" cy="209.811" r="9.93"/>
<circle fill="#FFFFFF" cx="473.343" cy="247.811" r="9.93"/>
<circle fill="#FFFFFF" cx="715.343" cy="237.811" r="9.93"/>
<circle fill="#FFFFFF" cx="812.343" cy="227.811" r="9.93"/>
<circle fill="#FFFFFF" cx="976.343" cy="247.811" r="9.93"/>
<circle fill="#FFFFFF" cx="1045.343" cy="219.811" r="9.93"/>
<circle fill="#FFFFFF" cx="887.343" cy="247.811" r="9.93"/>
<circle fill="#FFFFFF" cx="935.343" cy="208.811" r="9.93"/>
<path fill="#C42F12" d="M1075,275v7.379c0,2.209-1.896,3.621-4.105,3.621h-1067C1.686,286,0,284.588,0,282.379V275H1075z"/>
</svg>
