<?xml version="1.0" encoding="utf-8"?>
<!-- Generator: Adobe Illustrator 15.1.0, SVG Export Plug-In  -->
<!DOCTYPE svg PUBLIC "-//W3C//DTD SVG 1.1//EN" "http://www.w3.org/Graphics/SVG/1.1/DTD/svg11.dtd" [
	<!ENTITY ns_flows "http://ns.adobe.com/Flows/1.0/">
]>
<svg version="1.1"
	 xmlns="http://www.w3.org/2000/svg" xmlns:xlink="http://www.w3.org/1999/xlink" xmlns:a="http://ns.adobe.com/AdobeSVGViewerExtensions/3.0/"
	 x="0px" y="0px" width="300px" height="300px" viewBox="-39.559 0.176 300 300" enable-background="new -39.559 0.176 300 300"
	 xml:space="preserve">
<defs>
</defs>
<path fill="#586026" d="M66.777,255.176c0,0,4.029-33.629-4.605-49.17c-8.635-15.545-42.024-46.175-44.326-63.444
	c-2.303-17.27,0.576-42.084,8.06-47.264c7.484-5.182,19.927,8.693,15.976,37.746c0,0,5.323-6.13,5.899-19.945
	c0.575-13.816-14.824-33.53-15.631-52.383c-0.74-17.275,0.9-32.423,10.45-43.19c15.543-17.522,6.135,30.783,7.484,44.901
	C51.292,75.084,67.718,96.39,67.718,96.39s4.547-16.242,3.089-33.772C69.292,44.39,86.076,3.966,106.499,0.251
	c18.998-3.453-14.392,29.36-14.477,56.992c-0.026,8.56,6.278,41.608,10.447,42.024c5.756,0.575,11.781-22.804,18.997-33.964
	c8.788-13.592,39.722-43.751,46.054-33.389c6.332,10.362-19.572,17.27-25.599,43.51c-4.127,17.963-7.406,35.166-7.406,35.166
	s11.262-11.785,35.812-18.652c19.069-5.335,26.112-10.835,34.037-8.596c16.736,4.731-10.362,14.775-28.784,23.984
	c-22.804,11.401-18.422,23.604-18.422,34.541c0,10.938,5.92,44.089-12.089,73.349c-4.604,7.484,0.576,39.961,0.576,39.961H66.777z"
	/>
<g>
	<path fill="#261804" d="M16.695,266.787c-0.576,1.728-0.198,13.24,0.376,14.968c2.304-0.575,5.38-4.604,8.258-5.757
		c0,9.787,12.664,1.728,20.148,4.029c13.816,4.607,17.271,10.938,33.964,10.363c11.515,0,20.149,0.575,31.087,4.029
		c4.606,1.728,12.665,5.182,17.846,5.757c6.332,0,9.209-3.454,14.967-4.605c8.059-1.728,23.603-2.302,31.661,0
		c-9.786-1.728-5.757-6.907-0.574-9.786c2.878-1.727,12.089-1.15,16.118-1.727c-1.151-2.879-1.151-6.333-3.454-8.635
		c11.514-8.637,21.3-4.031,33.965-2.88c-6.332-5.181-12.089-6.331-19.572-9.21c6.331-11.515,12.664-23.602,20.147-34.54
		c-5.757,5.182-12.664,9.785-18.422,14.968c1.728-10.362-17.27-41.448-12.088-25.33c4.573,14.227-24.755,10.937-30.512,21.301
		c-7.483-8.637-24.178-15.544-27.631-27.058c-4.605,10.938,5.18,9.21,1.727,21.301c-4.03,13.24-10.363,27.632-13.816,6.331
		c-22.451,13.386-46.053,5.182-37.418-20.724c1.728-5.757,8.059-36.267,2.302-20.148c-3.06,8.572-9.786,15.543-10.937,22.45
		c-1.727,10.363-4.031,20.149-4.605,30.512c-2.878-6.908,0.575-20.148-9.787-20.725c-2.302,13.24-4.605,25.904-14.391,4.605
		c-5.757-12.665-1.728-14.393,0-27.633c-9.211,12.665-17.271,17.848-13.816,33.39c-8.635,2.302-16.695,0.576-24.753-3.455
		c1.727,8.901,9.211,8.061,8.635,13.817C4.605,255.85,9.786,250.093,0,258.152c6.908,1.151,17.846,6.907,18.997,10.938"/>
</g>
<g>
	<path fill="#332206" d="M221.058,272.543c-6.332-5.181-12.089-6.331-19.572-9.21c6.331-11.515,12.664-23.602,20.147-34.54
		c-5.757,5.182-12.664,9.785-18.422,14.968c1.728-10.362-17.27-41.448-12.088-25.33c4.573,14.227-24.755,10.937-30.512,21.301
		c-7.483-8.637-24.178-15.544-27.631-27.058c-4.605,10.938,5.18,9.21,1.727,21.301c-4.03,13.24-10.363,27.632-13.816,6.331
		c-22.451,13.386-46.053,5.182-37.418-20.724c1.728-5.757,8.059-36.267,2.302-20.148c-3.06,8.572-9.786,15.543-10.937,22.45
		c-1.727,10.363-4.031,20.149-4.605,30.512c-2.878-6.908,0.575-20.148-9.787-20.725c-2.302,13.24-4.605,25.904-14.391,4.605
		c-5.757-12.665-1.728-14.393,0-27.633c-9.211,12.665-17.271,17.848-13.816,33.39c-8.635,2.302-16.695,0.576-24.753-3.455
		c1.727,8.901,9.211,8.061,8.635,13.817C4.605,255.85,9.786,250.093,0,258.152c6.908,1.151,17.846,6.907,18.997,10.938
		c0,0-4.437-10.346,10.564-11.774s40.003,5.715,40.003,5.715l-7.858-8.571l24.287,6.429l-0.714-8.572c0,0,22.543,5.715,28.059,2.857
		c5.515-2.857,16.944,6.429,16.944,6.429l12.144-19.287l22.145,7.858l25.716-11.43l5.715,28.043L221.058,272.543z"/>
</g>
</svg>
