<?xml version="1.0" encoding="utf-8"?>
<!-- Generator: Adobe Illustrator 15.1.0, SVG Export Plug-In  -->
<!DOCTYPE svg PUBLIC "-//W3C//DTD SVG 1.1//EN" "http://www.w3.org/Graphics/SVG/1.1/DTD/svg11.dtd" [
	<!ENTITY ns_flows "http://ns.adobe.com/Flows/1.0/">
]>
<svg version="1.1"
	 xmlns="http://www.w3.org/2000/svg" xmlns:xlink="http://www.w3.org/1999/xlink" xmlns:a="http://ns.adobe.com/AdobeSVGViewerExtensions/3.0/"
	 x="0px" y="0px" width="300px" height="300px" viewBox="0.832 0 300 300" enable-background="new 0.832 0 300 300"
	 xml:space="preserve">
<defs>
</defs>
<circle fill="#323A44" cx="153.472" cy="152.082" r="147.917"/>
<path fill="#FFFFFF" d="M295.833,147.915c0,81.69-66.225,147.919-147.917,147.919S0,229.605,0,147.915C0,66.222,66.225,0,147.917,0
	S295.833,66.222,295.833,147.915z"/>
<circle fill="#323A44" cx="147.917" cy="147.915" r="133.555"/>
<path fill="#FFFFFF" d="M139.159,29.375l-4.6,14.25h-1.375l-2.042-5.476h-1.333c-0.167,0-0.312-0.048-0.438-0.149
	c-0.125-0.101-0.187-0.275-0.187-0.525V36.95h2.824c0.133,0,0.243,0.031,0.33,0.095c0.086,0.064,0.143,0.144,0.17,0.237l1.142,3.202
	c0.061,0.193,0.113,0.391,0.154,0.591c0.042,0.199,0.076,0.4,0.104,0.6c0.028-0.16,0.059-0.321,0.095-0.483
	c0.037-0.161,0.077-0.331,0.122-0.508l3.508-10.984c0.028-0.093,0.084-0.172,0.171-0.233c0.086-0.061,0.184-0.09,0.296-0.09H139.159
	z"/>
<path fill="#FFFFFF" d="M147.758,42.383v1.241h-6.467v-1.241h2.533v-7.843c0-0.25,0.009-0.508,0.025-0.774l-2.033,1.724
	c-0.078,0.062-0.155,0.1-0.233,0.117c-0.077,0.018-0.151,0.02-0.221,0.009c-0.069-0.012-0.13-0.036-0.184-0.072
	c-0.052-0.035-0.095-0.074-0.129-0.113l-0.508-0.708l3.583-3.092h1.325v10.751H147.758z"/>
<path fill="#FFFFFF" d="M158.117,39.258V40.2c0,0.095-0.029,0.175-0.092,0.242c-0.06,0.066-0.147,0.1-0.258,0.1h-1.384v3.083h-1.424
	v-3.083h-5.251c-0.123,0-0.225-0.036-0.309-0.105c-0.083-0.069-0.139-0.157-0.167-0.263l-0.167-0.833l5.785-7.692h1.532v7.609
	H158.117z M154.96,39.258v-4.667c0-0.161,0.002-0.332,0.013-0.513c0.008-0.18,0.024-0.368,0.052-0.563l-4.19,5.743H154.96z"/>
<path fill="#FFFFFF" d="M167.784,39.258V40.2c0,0.095-0.031,0.175-0.091,0.242c-0.063,0.066-0.147,0.1-0.26,0.1h-1.383v3.083h-1.426
	v-3.083h-5.249c-0.122,0-0.225-0.036-0.309-0.105c-0.084-0.069-0.14-0.157-0.167-0.263l-0.167-0.833l5.783-7.692h1.534v7.609
	H167.784z M164.625,39.258v-4.667c0-0.161,0.006-0.332,0.014-0.513c0.008-0.18,0.026-0.368,0.055-0.563l-4.191,5.743H164.625z"/>
<path fill="#FFFFFF" d="M73.347,226.721l-4.6,14.25h-1.375l-2.042-5.476h-1.333c-0.166,0-0.312-0.049-0.438-0.149
	c-0.125-0.1-0.187-0.275-0.187-0.524v-0.525h2.824c0.134,0,0.244,0.031,0.33,0.095s0.143,0.145,0.17,0.238l1.142,3.2
	c0.061,0.194,0.113,0.391,0.155,0.592c0.041,0.2,0.076,0.4,0.104,0.6c0.028-0.16,0.06-0.321,0.095-0.482
	c0.037-0.162,0.077-0.332,0.122-0.51l3.508-10.983c0.028-0.095,0.084-0.173,0.171-0.233c0.086-0.062,0.184-0.091,0.295-0.091H73.347
	z"/>
<path fill="#FFFFFF" d="M82.639,236.604v0.941c0,0.095-0.031,0.176-0.092,0.241c-0.061,0.066-0.147,0.101-0.258,0.101h-1.384v3.083
	H79.48v-3.083h-5.25c-0.123,0-0.225-0.035-0.309-0.104c-0.083-0.069-0.139-0.158-0.167-0.265l-0.167-0.832l5.784-7.692h1.533v7.609
	H82.639z M79.48,236.604v-4.668c0-0.16,0.004-0.331,0.012-0.512s0.026-0.368,0.054-0.563l-4.191,5.742H79.48z"/>
<path fill="#FFFFFF" d="M88.838,236.237c0.217-0.283,0.42-0.56,0.609-0.833c-0.3,0.228-0.635,0.4-1.004,0.517
	s-0.763,0.176-1.179,0.176c-0.439,0-0.86-0.076-1.263-0.226c-0.403-0.15-0.758-0.371-1.066-0.664
	c-0.309-0.291-0.555-0.65-0.738-1.078c-0.183-0.429-0.274-0.919-0.274-1.476c0-0.521,0.097-1.013,0.292-1.474
	c0.194-0.461,0.468-0.863,0.82-1.205c0.353-0.342,0.775-0.611,1.268-0.809c0.491-0.196,1.031-0.296,1.621-0.296
	c0.583,0,1.112,0.095,1.587,0.284c0.475,0.188,0.879,0.454,1.213,0.796c0.333,0.34,0.591,0.751,0.775,1.229
	c0.183,0.477,0.275,1.002,0.275,1.573c0,0.351-0.032,0.685-0.096,1c-0.064,0.317-0.156,0.626-0.274,0.926
	c-0.12,0.3-0.264,0.597-0.434,0.889c-0.169,0.291-0.363,0.59-0.579,0.895l-2.875,4.125c-0.079,0.112-0.19,0.203-0.338,0.276
	c-0.147,0.071-0.315,0.107-0.504,0.107h-1.492L88.838,236.237z M85.555,232.537c0,0.739,0.2,1.31,0.601,1.709
	c0.4,0.399,0.956,0.599,1.666,0.599c0.384,0,0.723-0.062,1.017-0.187c0.295-0.125,0.543-0.291,0.746-0.501
	c0.203-0.207,0.357-0.448,0.463-0.725c0.106-0.275,0.158-0.563,0.158-0.861c0-0.361-0.057-0.688-0.171-0.979
	c-0.114-0.293-0.274-0.539-0.479-0.742c-0.206-0.202-0.448-0.357-0.729-0.467c-0.281-0.108-0.591-0.163-0.929-0.163
	c-0.35,0-0.669,0.057-0.959,0.171c-0.289,0.115-0.536,0.274-0.742,0.479c-0.206,0.206-0.364,0.449-0.475,0.733
	C85.611,231.887,85.555,232.197,85.555,232.537z"/>
<path fill="#FFFFFF" d="M30.108,144.462c0.611-0.127,1.165-0.191,1.659-0.191c0.622,0,1.172,0.094,1.65,0.279
	c0.477,0.186,0.879,0.442,1.204,0.766c0.326,0.326,0.57,0.708,0.734,1.151c0.164,0.442,0.246,0.92,0.246,1.438
	c0,0.634-0.111,1.208-0.333,1.726c-0.223,0.517-0.529,0.958-0.917,1.325c-0.389,0.367-0.848,0.648-1.379,0.845
	c-0.53,0.198-1.101,0.296-1.712,0.296c-0.361,0-0.704-0.035-1.029-0.108c-0.325-0.072-0.629-0.167-0.913-0.287
	c-0.283-0.12-0.546-0.257-0.787-0.413c-0.242-0.154-0.457-0.319-0.646-0.491l0.5-0.7c0.105-0.156,0.247-0.233,0.424-0.233
	c0.117,0,0.247,0.042,0.388,0.129c0.142,0.085,0.309,0.182,0.504,0.287c0.195,0.106,0.425,0.201,0.692,0.288
	c0.267,0.085,0.583,0.129,0.95,0.129c0.405,0,0.771-0.065,1.096-0.195c0.324-0.13,0.6-0.316,0.824-0.555
	c0.226-0.239,0.397-0.525,0.517-0.858c0.119-0.333,0.179-0.703,0.179-1.108c0-0.36-0.052-0.686-0.158-0.976
	c-0.106-0.289-0.264-0.536-0.475-0.741c-0.211-0.206-0.475-0.363-0.792-0.472s-0.687-0.161-1.108-0.161
	c-0.588,0-1.216,0.104-1.883,0.316l-1.025-0.3l0.976-5.65h5.733v0.708c0,0.233-0.073,0.425-0.22,0.571
	c-0.148,0.148-0.394,0.221-0.738,0.221h-3.642L30.108,144.462z"/>
<path fill="#FFFFFF" d="M45.876,147.596v0.942c0,0.094-0.03,0.175-0.091,0.241c-0.062,0.066-0.147,0.1-0.258,0.1h-1.384v3.083
	h-1.425v-3.083h-5.25c-0.123,0-0.226-0.035-0.309-0.104c-0.083-0.069-0.139-0.158-0.167-0.264l-0.167-0.833l5.783-7.692h1.534v7.609
	H45.876z M42.718,147.596v-4.667c0-0.161,0.004-0.332,0.012-0.512c0.009-0.181,0.026-0.368,0.054-0.563l-4.191,5.743H42.718z"/>
<path fill="#FFFFFF" d="M56.652,137.712l-4.601,14.25h-1.375l-2.042-5.476h-1.333c-0.166,0-0.312-0.049-0.437-0.15
	c-0.125-0.1-0.188-0.275-0.188-0.525v-0.525h2.825c0.134,0,0.244,0.031,0.33,0.095c0.086,0.063,0.143,0.144,0.171,0.237l1.141,3.201
	c0.061,0.194,0.113,0.391,0.155,0.591c0.041,0.2,0.076,0.4,0.104,0.6c0.028-0.161,0.06-0.322,0.096-0.483
	c0.036-0.161,0.077-0.331,0.121-0.509l3.508-10.984c0.028-0.094,0.085-0.172,0.171-0.233c0.086-0.061,0.184-0.091,0.295-0.091
	H56.652z"/>
<path fill="#FFFFFF" d="M65.943,147.596v0.942c0,0.094-0.031,0.175-0.092,0.241s-0.147,0.1-0.258,0.1h-1.384v3.083h-1.424v-3.083
	h-5.25c-0.123,0-0.225-0.035-0.309-0.104c-0.083-0.069-0.139-0.158-0.167-0.264l-0.167-0.833l5.784-7.692h1.533v7.609H65.943z
	 M62.785,147.596v-4.667c0-0.161,0.004-0.332,0.013-0.512c0.008-0.181,0.025-0.368,0.053-0.563l-4.191,5.743H62.785z"/>
<path fill="#FFFFFF" d="M73.027,145.72c0.745,0.223,1.31,0.581,1.696,1.076c0.386,0.494,0.58,1.119,0.58,1.874
	c0,0.523-0.099,0.995-0.297,1.418c-0.197,0.422-0.475,0.781-0.833,1.078c-0.358,0.298-0.788,0.527-1.288,0.688
	s-1.05,0.241-1.65,0.241s-1.15-0.08-1.65-0.241c-0.5-0.161-0.929-0.391-1.288-0.688c-0.358-0.296-0.637-0.656-0.833-1.078
	c-0.197-0.423-0.296-0.895-0.296-1.418c0-0.755,0.193-1.38,0.58-1.874c0.386-0.495,0.951-0.854,1.695-1.076
	c-0.616-0.233-1.081-0.582-1.392-1.045c-0.311-0.464-0.466-1.015-0.466-1.655c0-0.444,0.088-0.859,0.263-1.245
	c0.175-0.387,0.422-0.72,0.742-1.004c0.319-0.284,0.705-0.506,1.154-0.667c0.45-0.162,0.947-0.241,1.492-0.241
	c0.544,0,1.042,0.08,1.492,0.241c0.449,0.162,0.834,0.384,1.153,0.667s0.567,0.617,0.742,1.004c0.175,0.386,0.263,0.801,0.263,1.245
	c0,0.64-0.155,1.191-0.466,1.655C74.107,145.139,73.644,145.487,73.027,145.72z M71.235,150.805c0.378,0,0.714-0.053,1.008-0.159
	s0.545-0.254,0.75-0.444c0.206-0.193,0.361-0.422,0.466-0.688c0.105-0.268,0.159-0.559,0.159-0.875c0-0.39-0.064-0.724-0.191-1.005
	c-0.128-0.281-0.301-0.511-0.517-0.692c-0.217-0.18-0.469-0.313-0.758-0.4c-0.289-0.085-0.595-0.129-0.917-0.129
	c-0.328,0-0.636,0.043-0.925,0.129c-0.289,0.086-0.542,0.22-0.758,0.4c-0.217,0.181-0.388,0.411-0.513,0.692
	c-0.125,0.281-0.187,0.615-0.187,1.005c0,0.316,0.052,0.607,0.158,0.875c0.106,0.266,0.261,0.495,0.466,0.688
	c0.206,0.19,0.456,0.338,0.75,0.444C70.521,150.751,70.858,150.805,71.235,150.805z M71.235,141.113
	c-0.345,0-0.646,0.05-0.904,0.153c-0.258,0.104-0.474,0.243-0.646,0.42c-0.173,0.179-0.301,0.384-0.387,0.617
	s-0.129,0.483-0.129,0.75c0,0.261,0.038,0.515,0.113,0.762c0.075,0.248,0.194,0.466,0.358,0.659
	c0.164,0.191,0.376,0.346,0.638,0.463c0.261,0.117,0.581,0.175,0.958,0.175c0.372,0,0.69-0.058,0.954-0.175s0.478-0.271,0.642-0.463
	c0.164-0.192,0.284-0.411,0.359-0.659c0.074-0.247,0.112-0.501,0.112-0.762c0-0.268-0.042-0.517-0.129-0.75
	c-0.086-0.233-0.216-0.438-0.387-0.617c-0.172-0.178-0.388-0.317-0.646-0.42C71.881,141.163,71.58,141.113,71.235,141.113z"/>
<path fill="#FFFFFF" d="M80.119,144.445c-0.095,0.122-0.188,0.24-0.28,0.354c-0.091,0.114-0.179,0.227-0.262,0.337
	c0.267-0.172,0.563-0.305,0.888-0.4c0.325-0.094,0.676-0.142,1.054-0.142c0.473,0,0.922,0.078,1.351,0.233
	c0.428,0.155,0.804,0.383,1.129,0.684c0.325,0.299,0.582,0.671,0.771,1.116c0.188,0.445,0.282,0.955,0.282,1.533
	c0,0.551-0.1,1.066-0.299,1.546c-0.2,0.48-0.482,0.898-0.846,1.25s-0.799,0.631-1.304,0.833c-0.506,0.203-1.067,0.304-1.684,0.304
	c-0.611,0-1.163-0.097-1.654-0.292c-0.492-0.194-0.911-0.471-1.258-0.829s-0.615-0.792-0.805-1.301
	c-0.188-0.507-0.283-1.073-0.283-1.695c0-0.533,0.115-1.096,0.346-1.687c0.23-0.592,0.596-1.224,1.096-1.896l2.992-4.008
	c0.083-0.111,0.2-0.205,0.35-0.279c0.149-0.075,0.322-0.113,0.517-0.113h1.45L80.119,144.445z M80.885,150.738
	c0.384,0,0.731-0.063,1.042-0.187c0.312-0.126,0.578-0.297,0.8-0.513c0.223-0.217,0.395-0.475,0.517-0.776
	c0.122-0.3,0.183-0.624,0.183-0.976c0-0.382-0.06-0.726-0.179-1.028s-0.286-0.561-0.5-0.771c-0.215-0.211-0.471-0.372-0.771-0.483
	c-0.3-0.111-0.634-0.167-1-0.167c-0.384,0-0.729,0.065-1.034,0.197c-0.306,0.13-0.567,0.305-0.783,0.525
	c-0.218,0.218-0.384,0.476-0.5,0.77c-0.117,0.294-0.175,0.603-0.175,0.925c0,0.366,0.052,0.703,0.158,1.008
	c0.106,0.306,0.261,0.567,0.466,0.784c0.206,0.217,0.457,0.387,0.754,0.509C80.162,150.677,80.502,150.738,80.885,150.738z"/>
<path fill="#FFFFFF" d="M121.258,257.876c-0.095,0.122-0.188,0.24-0.28,0.354c-0.091,0.114-0.179,0.227-0.262,0.338
	c0.267-0.172,0.563-0.306,0.888-0.4c0.325-0.093,0.676-0.141,1.054-0.141c0.473,0,0.922,0.077,1.35,0.233
	c0.428,0.154,0.804,0.383,1.129,0.683c0.325,0.301,0.582,0.672,0.771,1.117c0.188,0.444,0.283,0.954,0.283,1.533
	c0,0.55-0.1,1.065-0.3,1.546c-0.2,0.479-0.482,0.897-0.846,1.25c-0.364,0.354-0.799,0.631-1.304,0.833
	c-0.505,0.203-1.067,0.304-1.683,0.304c-0.612,0-1.163-0.096-1.655-0.291c-0.492-0.194-0.911-0.471-1.258-0.829
	c-0.347-0.357-0.615-0.792-0.804-1.301c-0.189-0.508-0.283-1.072-0.283-1.695c0-0.533,0.115-1.097,0.346-1.688
	c0.23-0.591,0.596-1.223,1.096-1.896l2.993-4.009c0.083-0.111,0.2-0.205,0.35-0.28c0.149-0.073,0.322-0.111,0.516-0.111h1.45
	L121.258,257.876z M122.024,264.168c0.384,0,0.731-0.063,1.042-0.187c0.312-0.127,0.578-0.297,0.8-0.514
	c0.223-0.216,0.396-0.475,0.517-0.775c0.123-0.3,0.184-0.624,0.184-0.976c0-0.383-0.06-0.726-0.18-1.028
	c-0.119-0.302-0.286-0.561-0.5-0.771c-0.214-0.21-0.471-0.372-0.771-0.482c-0.3-0.111-0.634-0.167-1-0.167
	c-0.384,0-0.728,0.064-1.033,0.196c-0.306,0.13-0.567,0.306-0.783,0.525c-0.217,0.219-0.383,0.476-0.5,0.77
	c-0.117,0.295-0.175,0.603-0.175,0.926c0,0.365,0.052,0.703,0.158,1.008c0.106,0.307,0.261,0.567,0.467,0.783
	c0.206,0.218,0.457,0.388,0.754,0.509C121.3,264.106,121.641,264.168,122.024,264.168z"/>
<path fill="#FFFFFF" d="M135.117,265.394h-1.566c-0.128,0-0.229-0.035-0.305-0.104c-0.074-0.07-0.135-0.143-0.179-0.222
	l-2.042-3.225c-0.028,0.083-0.056,0.164-0.083,0.241c-0.029,0.078-0.064,0.149-0.108,0.218l-1.875,2.766
	c-0.056,0.079-0.12,0.151-0.192,0.222c-0.072,0.069-0.166,0.104-0.283,0.104h-1.451l2.95-4.359l-2.833-4.108h1.567
	c0.127,0,0.22,0.02,0.278,0.059c0.059,0.038,0.11,0.097,0.155,0.175l2.008,3.092c0.028-0.083,0.059-0.166,0.091-0.246
	c0.033-0.079,0.078-0.165,0.134-0.254l1.725-2.56c0.1-0.178,0.233-0.266,0.4-0.266H135l-2.833,4.032L135.117,265.394z"/>
<path fill="#FFFFFF" d="M136.025,259.693h4.167v1.382h-4.167V259.693z"/>
<path fill="#FFFFFF" d="M150.417,261.026v0.941c0,0.095-0.031,0.175-0.092,0.242c-0.061,0.065-0.147,0.1-0.258,0.1h-1.383v3.084
	h-1.425v-3.084h-5.25c-0.122,0-0.225-0.035-0.309-0.104c-0.083-0.069-0.139-0.157-0.167-0.263l-0.167-0.833l5.784-7.692h1.534v7.609
	H150.417z M147.259,261.026v-4.667c0-0.162,0.004-0.333,0.013-0.513c0.008-0.181,0.025-0.368,0.053-0.563l-4.191,5.743H147.259z"/>
<path fill="#FFFFFF" d="M152.101,257.751h7.217v1.232h-7.217V257.751z M152.101,260.585h7.217v1.231h-7.217V260.585z"/>
<path fill="#FFFFFF" d="M161.575,256.685c0.085-0.556,0.239-1.044,0.467-1.468c0.229-0.421,0.514-0.775,0.859-1.063
	c0.344-0.285,0.739-0.501,1.188-0.646c0.447-0.145,0.93-0.216,1.444-0.216c0.518,0,0.993,0.072,1.426,0.221
	c0.433,0.146,0.805,0.355,1.112,0.625c0.309,0.269,0.55,0.593,0.721,0.97c0.174,0.379,0.259,0.795,0.259,1.251
	c0,0.384-0.047,0.722-0.143,1.016c-0.093,0.296-0.228,0.554-0.404,0.776c-0.173,0.222-0.386,0.409-0.638,0.563
	c-0.249,0.151-0.528,0.278-0.84,0.378c0.761,0.212,1.333,0.556,1.717,1.029c0.383,0.477,0.575,1.077,0.575,1.805
	c0,0.562-0.105,1.066-0.317,1.513c-0.212,0.447-0.499,0.824-0.867,1.134c-0.366,0.308-0.793,0.543-1.278,0.708
	c-0.486,0.164-1.004,0.245-1.555,0.245c-0.627,0-1.167-0.075-1.616-0.229c-0.451-0.151-0.834-0.367-1.15-0.643
	c-0.316-0.273-0.578-0.604-0.787-0.99c-0.209-0.388-0.386-0.81-0.529-1.271l0.708-0.3c0.184-0.078,0.361-0.101,0.533-0.066
	c0.172,0.033,0.297,0.13,0.376,0.291c0.083,0.168,0.179,0.354,0.288,0.563c0.108,0.208,0.253,0.406,0.436,0.592
	c0.185,0.186,0.413,0.343,0.688,0.47c0.275,0.128,0.619,0.191,1.037,0.191c0.4,0,0.75-0.064,1.05-0.194
	c0.302-0.131,0.551-0.301,0.75-0.509c0.199-0.21,0.35-0.439,0.451-0.696c0.098-0.255,0.15-0.509,0.15-0.758
	c0-0.312-0.041-0.597-0.117-0.859c-0.078-0.261-0.228-0.483-0.447-0.67c-0.219-0.188-0.524-0.332-0.911-0.438
	c-0.39-0.106-0.896-0.159-1.517-0.159v-1.183c0.51-0.005,0.942-0.059,1.296-0.159c0.352-0.1,0.637-0.239,0.854-0.417
	c0.216-0.176,0.374-0.388,0.471-0.633c0.098-0.243,0.146-0.517,0.146-0.816c0-0.328-0.051-0.613-0.15-0.858
	c-0.1-0.244-0.24-0.449-0.422-0.612c-0.179-0.163-0.394-0.287-0.641-0.367s-0.516-0.12-0.805-0.12c-0.288,0-0.556,0.042-0.8,0.125
	c-0.245,0.083-0.461,0.2-0.649,0.35c-0.189,0.15-0.348,0.328-0.475,0.532c-0.129,0.207-0.221,0.429-0.277,0.668
	c-0.077,0.212-0.177,0.353-0.295,0.425c-0.119,0.072-0.29,0.09-0.514,0.05L161.575,256.685z"/>
<path fill="#FFFFFF" d="M178.427,263.851c0.178,0,0.315,0.051,0.417,0.154c0.1,0.103,0.15,0.237,0.15,0.404v0.984h-8.035v-0.56
	c0-0.111,0.022-0.229,0.067-0.354c0.045-0.126,0.118-0.238,0.225-0.339l3.783-3.79c0.318-0.318,0.604-0.623,0.859-0.917
	c0.256-0.295,0.474-0.588,0.648-0.879c0.18-0.292,0.316-0.591,0.412-0.897c0.099-0.305,0.147-0.626,0.147-0.966
	c0-0.333-0.053-0.626-0.157-0.88c-0.106-0.253-0.251-0.462-0.434-0.629c-0.185-0.166-0.401-0.291-0.651-0.374
	s-0.519-0.125-0.809-0.125c-0.288,0-0.554,0.042-0.795,0.125s-0.458,0.2-0.646,0.35c-0.19,0.15-0.348,0.328-0.475,0.532
	c-0.128,0.207-0.221,0.429-0.276,0.668c-0.077,0.212-0.178,0.353-0.297,0.425c-0.118,0.072-0.293,0.09-0.521,0.05l-0.85-0.149
	c0.079-0.556,0.231-1.044,0.459-1.468c0.228-0.421,0.513-0.775,0.857-1.063c0.344-0.285,0.74-0.501,1.188-0.646
	c0.448-0.145,0.931-0.216,1.446-0.216c0.522,0,1.005,0.076,1.446,0.229c0.441,0.153,0.824,0.373,1.146,0.662
	c0.322,0.289,0.575,0.641,0.759,1.055c0.185,0.415,0.275,0.882,0.275,1.404c0,0.445-0.066,0.857-0.197,1.236
	c-0.13,0.382-0.308,0.744-0.531,1.089c-0.225,0.344-0.486,0.68-0.784,1.003c-0.298,0.326-0.613,0.656-0.947,0.987l-3.032,3.102
	c0.233-0.062,0.468-0.111,0.704-0.151c0.235-0.037,0.46-0.058,0.672-0.058H178.427z"/>
<path fill="#FFFFFF" d="M40.768,111.76c0.178,0,0.317,0.051,0.417,0.155c0.1,0.104,0.15,0.238,0.15,0.404v0.983h-8.034v-0.559
	c0-0.111,0.022-0.229,0.066-0.354c0.044-0.125,0.119-0.237,0.225-0.338l3.784-3.791c0.317-0.317,0.603-0.623,0.858-0.917
	c0.256-0.294,0.473-0.588,0.65-0.879s0.315-0.59,0.412-0.896c0.098-0.305,0.146-0.626,0.146-0.966c0-0.333-0.053-0.626-0.158-0.88
	c-0.106-0.252-0.25-0.463-0.434-0.628c-0.184-0.167-0.4-0.292-0.65-0.376c-0.25-0.083-0.52-0.125-0.809-0.125
	c-0.289,0-0.555,0.042-0.796,0.125c-0.242,0.084-0.457,0.201-0.646,0.35c-0.189,0.151-0.348,0.329-0.476,0.533
	c-0.127,0.207-0.22,0.429-0.274,0.667c-0.078,0.212-0.177,0.353-0.296,0.425c-0.119,0.073-0.293,0.089-0.521,0.05l-0.85-0.149
	c0.078-0.556,0.23-1.045,0.458-1.468c0.228-0.422,0.513-0.776,0.858-1.063c0.344-0.286,0.741-0.501,1.188-0.646
	c0.447-0.145,0.929-0.217,1.445-0.217c0.522,0,1.005,0.076,1.446,0.229c0.442,0.153,0.824,0.373,1.146,0.662
	c0.322,0.289,0.575,0.64,0.758,1.055c0.184,0.414,0.275,0.882,0.275,1.404c0,0.444-0.066,0.857-0.196,1.237
	c-0.131,0.381-0.309,0.743-0.533,1.088c-0.225,0.344-0.486,0.68-0.783,1.003c-0.298,0.326-0.613,0.655-0.946,0.988l-3.033,3.101
	c0.233-0.061,0.468-0.111,0.704-0.151c0.236-0.038,0.459-0.058,0.671-0.058H40.768z"/>
<path fill="#FFFFFF" d="M44.352,108.069c0,1.178,0.147,2.325,0.441,3.442c0.294,1.116,0.725,2.175,1.292,3.175
	c0.094,0.184,0.119,0.326,0.074,0.425c-0.044,0.1-0.114,0.18-0.208,0.242l-0.726,0.442c-0.416-0.639-0.771-1.274-1.063-1.905
	c-0.292-0.631-0.528-1.264-0.708-1.9c-0.181-0.636-0.313-1.279-0.396-1.929c-0.083-0.65-0.125-1.314-0.125-1.992
	c0-0.683,0.042-1.351,0.125-2c0.084-0.65,0.215-1.292,0.396-1.929c0.18-0.636,0.416-1.269,0.708-1.9
	c0.292-0.63,0.646-1.266,1.063-1.904l0.726,0.442c0.094,0.061,0.164,0.141,0.208,0.241c0.045,0.099,0.02,0.242-0.074,0.424
	c-0.567,1-0.998,2.061-1.292,3.18S44.352,106.891,44.352,108.069z"/>
<path fill="#FFFFFF" d="M47.735,104.595c0.083-0.556,0.238-1.045,0.466-1.468c0.228-0.422,0.513-0.776,0.858-1.063
	c0.344-0.286,0.74-0.501,1.188-0.646c0.447-0.145,0.929-0.217,1.446-0.217c0.516,0,0.991,0.073,1.424,0.221
	c0.434,0.146,0.805,0.355,1.113,0.625c0.309,0.269,0.549,0.592,0.721,0.969c0.172,0.379,0.258,0.795,0.258,1.251
	c0,0.384-0.047,0.721-0.142,1.016c-0.095,0.296-0.229,0.554-0.404,0.776c-0.175,0.222-0.387,0.41-0.638,0.563
	c-0.25,0.152-0.53,0.278-0.841,0.378c0.761,0.212,1.333,0.555,1.716,1.03c0.384,0.475,0.575,1.077,0.575,1.804
	c0,0.562-0.105,1.066-0.316,1.513c-0.211,0.448-0.5,0.825-0.867,1.134c-0.366,0.308-0.792,0.544-1.279,0.708
	s-1.004,0.246-1.554,0.246c-0.627,0-1.167-0.076-1.617-0.229c-0.45-0.152-0.833-0.367-1.15-0.642
	c-0.317-0.274-0.58-0.605-0.788-0.992c-0.208-0.387-0.385-0.81-0.53-1.271l0.709-0.3c0.183-0.077,0.361-0.1,0.533-0.066
	c0.172,0.033,0.297,0.13,0.375,0.292c0.084,0.167,0.18,0.354,0.288,0.563c0.109,0.207,0.254,0.405,0.438,0.591
	c0.183,0.186,0.413,0.343,0.687,0.471c0.276,0.127,0.621,0.191,1.038,0.191c0.4,0,0.75-0.065,1.05-0.195
	c0.301-0.13,0.55-0.3,0.75-0.509c0.2-0.208,0.35-0.439,0.45-0.696c0.1-0.255,0.15-0.508,0.15-0.758c0-0.311-0.04-0.597-0.117-0.859
	c-0.078-0.26-0.227-0.484-0.446-0.669c-0.219-0.187-0.524-0.333-0.912-0.438c-0.39-0.106-0.895-0.159-1.518-0.159v-1.183
	c0.511-0.005,0.943-0.059,1.296-0.159c0.353-0.1,0.638-0.239,0.854-0.416c0.216-0.178,0.374-0.39,0.471-0.634
	c0.097-0.244,0.146-0.517,0.146-0.816c0-0.329-0.05-0.614-0.15-0.859c-0.1-0.244-0.241-0.449-0.421-0.613
	c-0.181-0.163-0.394-0.287-0.642-0.366c-0.247-0.08-0.516-0.121-0.804-0.121c-0.289,0-0.556,0.042-0.8,0.125
	c-0.245,0.084-0.461,0.201-0.65,0.35c-0.188,0.151-0.347,0.329-0.475,0.533c-0.128,0.207-0.22,0.429-0.275,0.667
	c-0.078,0.212-0.176,0.353-0.296,0.425c-0.12,0.073-0.29,0.089-0.513,0.05L47.735,104.595z"/>
<path fill="#FFFFFF" d="M65.219,108.327H61.86v3.542h-1.325v-3.542h-3.341v-1.232h3.341v-3.525h1.325v3.525h3.359V108.327z"/>
<path fill="#FFFFFF" d="M74.252,111.76c0.178,0,0.317,0.051,0.417,0.155c0.1,0.104,0.151,0.238,0.151,0.404v0.983h-8.035v-0.559
	c0-0.111,0.023-0.229,0.067-0.354c0.045-0.125,0.119-0.237,0.225-0.338l3.784-3.791c0.316-0.317,0.602-0.623,0.857-0.917
	c0.255-0.294,0.473-0.588,0.65-0.879c0.178-0.292,0.315-0.59,0.413-0.896c0.097-0.305,0.146-0.626,0.146-0.966
	c0-0.333-0.053-0.626-0.158-0.88c-0.106-0.252-0.25-0.463-0.434-0.628c-0.184-0.167-0.4-0.292-0.65-0.376
	c-0.25-0.083-0.519-0.125-0.809-0.125c-0.289,0-0.554,0.042-0.795,0.125c-0.242,0.084-0.457,0.201-0.646,0.35
	c-0.189,0.151-0.348,0.329-0.476,0.533c-0.127,0.207-0.22,0.429-0.275,0.667c-0.078,0.212-0.177,0.353-0.296,0.425
	c-0.12,0.073-0.293,0.089-0.521,0.05l-0.85-0.149c0.078-0.556,0.231-1.045,0.459-1.468c0.228-0.422,0.513-0.776,0.857-1.063
	c0.345-0.286,0.741-0.501,1.188-0.646c0.447-0.145,0.929-0.217,1.445-0.217c0.522,0,1.004,0.076,1.446,0.229
	c0.441,0.153,0.824,0.373,1.146,0.662c0.322,0.289,0.575,0.64,0.758,1.055c0.184,0.414,0.275,0.882,0.275,1.404
	c0,0.444-0.066,0.857-0.196,1.237c-0.131,0.381-0.309,0.743-0.533,1.088c-0.226,0.344-0.487,0.68-0.784,1.003
	c-0.298,0.326-0.613,0.655-0.946,0.988l-3.033,3.101c0.233-0.061,0.468-0.111,0.704-0.151c0.236-0.038,0.46-0.058,0.671-0.058
	H74.252z"/>
<path fill="#FFFFFF" d="M78.052,108.069c0-1.178-0.148-2.327-0.445-3.446c-0.297-1.119-0.729-2.18-1.296-3.18
	c-0.095-0.183-0.118-0.325-0.071-0.424c0.047-0.101,0.118-0.18,0.212-0.241l0.725-0.442c0.417,0.639,0.77,1.274,1.059,1.904
	c0.288,0.631,0.525,1.264,0.708,1.9c0.184,0.637,0.317,1.279,0.4,1.929c0.083,0.65,0.125,1.317,0.125,2
	c0,0.677-0.042,1.342-0.125,1.992c-0.083,0.649-0.217,1.292-0.4,1.929c-0.183,0.636-0.419,1.269-0.708,1.9
	c-0.289,0.631-0.642,1.266-1.059,1.905l-0.725-0.442c-0.095-0.062-0.166-0.142-0.212-0.242c-0.047-0.099-0.024-0.241,0.071-0.425
	c0.567-1,0.999-2.059,1.296-3.175C77.904,110.395,78.052,109.247,78.052,108.069z"/>
<path fill="#22272D" d="M249.46,61.159c-24.495-28.643-60.899-46.797-101.543-46.797c-41.2,0-78.042,18.656-102.541,47.98
	c0,0,48.215-40.411,102.236-40.411C205.055,21.93,249.46,61.159,249.46,61.159z"/>
<path fill="#FFFFFF" d="M59.119,64.614h1.267v15.708h-1.267V64.614z"/>
<path fill="#FFFFFF" d="M63.335,64.614h1.267v15.708h-1.267V64.614z"/>
<path fill="#FFFFFF" d="M73.153,70.538c-0.051,0.061-0.099,0.11-0.147,0.146c-0.047,0.035-0.115,0.055-0.204,0.055
	c-0.088,0-0.182-0.036-0.279-0.105c-0.097-0.069-0.22-0.145-0.367-0.225c-0.147-0.081-0.325-0.156-0.533-0.225
	c-0.209-0.069-0.466-0.104-0.771-0.104c-0.4,0-0.753,0.072-1.059,0.217c-0.305,0.144-0.559,0.35-0.762,0.617
	c-0.203,0.266-0.357,0.591-0.463,0.974c-0.106,0.383-0.158,0.813-0.158,1.292c0,0.494,0.055,0.935,0.167,1.322
	c0.111,0.385,0.27,0.71,0.475,0.974c0.206,0.265,0.456,0.464,0.75,0.601c0.294,0.136,0.622,0.204,0.983,0.204
	c0.35,0,0.639-0.042,0.867-0.128c0.228-0.086,0.417-0.18,0.566-0.28c0.15-0.101,0.276-0.193,0.375-0.279
	c0.1-0.085,0.203-0.129,0.309-0.129c0.133,0,0.236,0.05,0.309,0.15l0.467,0.6c-0.195,0.238-0.414,0.442-0.655,0.609
	c-0.241,0.167-0.498,0.303-0.771,0.408c-0.272,0.106-0.557,0.184-0.854,0.233c-0.297,0.05-0.599,0.075-0.904,0.075
	c-0.528,0-1.021-0.098-1.479-0.292c-0.458-0.193-0.855-0.477-1.192-0.85c-0.336-0.372-0.602-0.829-0.795-1.37
	c-0.195-0.542-0.292-1.157-0.292-1.846c0-0.628,0.087-1.208,0.262-1.741c0.175-0.535,0.434-0.993,0.775-1.38
	c0.341-0.386,0.762-0.688,1.262-0.909c0.5-0.22,1.072-0.33,1.717-0.33c0.604,0,1.139,0.098,1.6,0.292
	c0.461,0.195,0.873,0.471,1.233,0.826L73.153,70.538z"/>
<path fill="#FFFFFF" d="M78.652,68.821c0.623,0,1.185,0.102,1.688,0.305c0.503,0.202,0.931,0.494,1.284,0.875
	c0.352,0.38,0.623,0.838,0.812,1.375c0.188,0.536,0.284,1.137,0.284,1.804c0,0.667-0.095,1.27-0.284,1.809
	c-0.189,0.539-0.46,0.997-0.812,1.375c-0.353,0.377-0.781,0.667-1.284,0.871c-0.502,0.202-1.064,0.304-1.688,0.304
	c-0.628,0-1.193-0.102-1.695-0.304c-0.503-0.204-0.933-0.494-1.288-0.871c-0.355-0.379-0.629-0.837-0.82-1.375
	c-0.192-0.539-0.288-1.142-0.288-1.809c0-0.667,0.096-1.268,0.288-1.804c0.191-0.537,0.465-0.995,0.82-1.375
	c0.355-0.381,0.785-0.673,1.288-0.875C77.459,68.923,78.024,68.821,78.652,68.821z M78.652,76.272c0.801,0,1.397-0.269,1.792-0.809
	c0.395-0.539,0.592-1.297,0.592-2.275c0-0.978-0.197-1.738-0.592-2.28c-0.395-0.541-0.991-0.813-1.792-0.813
	c-0.811,0-1.415,0.271-1.812,0.813c-0.397,0.542-0.596,1.303-0.596,2.28c0,0.978,0.199,1.736,0.596,2.275
	C77.237,76.003,77.841,76.272,78.652,76.272z"/>
<path fill="#FFFFFF" d="M89.519,70.414c-0.045,0.072-0.092,0.124-0.142,0.155c-0.05,0.029-0.114,0.044-0.192,0.044
	c-0.089,0-0.187-0.03-0.296-0.091c-0.108-0.061-0.238-0.127-0.391-0.2c-0.153-0.072-0.333-0.139-0.538-0.199
	c-0.206-0.062-0.449-0.092-0.732-0.092c-0.233,0-0.447,0.029-0.638,0.087c-0.192,0.059-0.355,0.139-0.488,0.242
	s-0.235,0.225-0.309,0.366c-0.071,0.142-0.108,0.292-0.108,0.454c0,0.212,0.063,0.387,0.188,0.525
	c0.125,0.14,0.289,0.259,0.491,0.358c0.203,0.1,0.434,0.191,0.692,0.271c0.258,0.081,0.522,0.166,0.791,0.254
	c0.27,0.089,0.534,0.191,0.792,0.305c0.259,0.114,0.489,0.255,0.691,0.424s0.367,0.375,0.491,0.613
	c0.126,0.239,0.188,0.531,0.188,0.875c0,0.395-0.071,0.76-0.212,1.096c-0.141,0.336-0.35,0.627-0.625,0.871
	c-0.274,0.244-0.615,0.435-1.021,0.575c-0.405,0.139-0.869,0.208-1.392,0.208c-0.584,0-1.122-0.096-1.617-0.292
	c-0.494-0.194-0.909-0.441-1.242-0.742l0.383-0.624c0.045-0.079,0.101-0.139,0.167-0.18c0.067-0.042,0.156-0.063,0.267-0.063
	c0.106,0,0.214,0.039,0.325,0.116c0.111,0.079,0.245,0.163,0.4,0.255c0.156,0.091,0.345,0.175,0.567,0.25
	c0.221,0.075,0.5,0.112,0.833,0.112c0.277,0,0.519-0.034,0.725-0.104c0.206-0.069,0.376-0.163,0.512-0.283
	c0.137-0.12,0.238-0.256,0.305-0.413c0.067-0.155,0.1-0.319,0.1-0.491c0-0.222-0.062-0.406-0.187-0.554
	c-0.126-0.146-0.289-0.273-0.492-0.379c-0.203-0.106-0.435-0.198-0.695-0.275c-0.262-0.078-0.529-0.162-0.801-0.25
	c-0.272-0.089-0.539-0.192-0.8-0.309c-0.261-0.117-0.494-0.263-0.696-0.441c-0.203-0.177-0.366-0.395-0.491-0.651
	c-0.125-0.255-0.188-0.565-0.188-0.934c0-0.327,0.068-0.642,0.205-0.941c0.136-0.3,0.333-0.564,0.591-0.792
	c0.258-0.228,0.578-0.409,0.959-0.545c0.38-0.135,0.814-0.205,1.304-0.205c0.561,0,1.067,0.089,1.521,0.267s0.84,0.422,1.163,0.734
	L89.519,70.414z"/>
<path fill="#FFFFFF" d="M92.761,72.188c0,1.178,0.147,2.325,0.441,3.442c0.294,1.116,0.725,2.175,1.292,3.175
	c0.095,0.183,0.12,0.325,0.075,0.424c-0.044,0.101-0.114,0.181-0.208,0.242l-0.725,0.442c-0.416-0.639-0.771-1.274-1.063-1.905
	s-0.528-1.264-0.708-1.9c-0.181-0.636-0.313-1.279-0.396-1.929c-0.083-0.65-0.125-1.314-0.125-1.992c0-0.683,0.042-1.351,0.125-2
	c0.084-0.649,0.215-1.292,0.396-1.928c0.18-0.637,0.417-1.27,0.708-1.9c0.292-0.631,0.646-1.266,1.063-1.905l0.725,0.442
	c0.094,0.061,0.164,0.141,0.208,0.242c0.045,0.099,0.02,0.241-0.075,0.424c-0.566,1-0.998,2.061-1.292,3.18
	C92.908,69.861,92.761,71.01,92.761,72.188z"/>
<path fill="#FFFFFF" d="M104.294,71.439c0,1.044-0.112,1.949-0.337,2.717c-0.225,0.766-0.533,1.401-0.924,1.903
	c-0.393,0.502-0.854,0.877-1.384,1.122c-0.53,0.244-1.101,0.366-1.712,0.366c-0.611,0-1.183-0.122-1.712-0.366
	c-0.531-0.244-0.991-0.619-1.379-1.122c-0.39-0.502-0.695-1.137-0.917-1.903c-0.222-0.768-0.333-1.673-0.333-2.717
	c0-1.044,0.11-1.952,0.333-2.721c0.223-0.77,0.528-1.407,0.917-1.908c0.389-0.503,0.848-0.876,1.379-1.122
	c0.53-0.244,1.101-0.367,1.712-0.367c0.611,0,1.182,0.123,1.712,0.367c0.531,0.245,0.992,0.618,1.384,1.122
	c0.391,0.501,0.7,1.138,0.924,1.908C104.182,69.487,104.294,70.395,104.294,71.439z M102.611,71.439c0-0.901-0.073-1.653-0.22-2.259
	c-0.148-0.606-0.345-1.093-0.592-1.463c-0.247-0.369-0.532-0.632-0.854-0.787c-0.323-0.156-0.659-0.233-1.008-0.233
	c-0.35,0-0.687,0.078-1.009,0.233c-0.322,0.154-0.607,0.418-0.854,0.787c-0.247,0.37-0.442,0.857-0.587,1.463
	c-0.145,0.605-0.216,1.358-0.216,2.259c0,0.899,0.071,1.652,0.216,2.258c0.145,0.605,0.34,1.09,0.587,1.458
	c0.248,0.366,0.533,0.628,0.854,0.782c0.322,0.156,0.659,0.234,1.009,0.234c0.35,0,0.686-0.078,1.008-0.234
	c0.322-0.154,0.607-0.416,0.854-0.782c0.247-0.368,0.444-0.853,0.592-1.458C102.538,73.091,102.611,72.338,102.611,71.439z"/>
<path fill="#FFFFFF" d="M107.127,72.188c0-1.178-0.148-2.327-0.445-3.446c-0.298-1.119-0.729-2.18-1.296-3.18
	c-0.094-0.183-0.118-0.325-0.07-0.424c0.047-0.101,0.118-0.181,0.212-0.242l0.726-0.442c0.416,0.639,0.77,1.274,1.059,1.905
	c0.288,0.63,0.525,1.264,0.708,1.9c0.183,0.636,0.316,1.279,0.4,1.928c0.083,0.65,0.125,1.317,0.125,2
	c0,0.677-0.042,1.342-0.125,1.992c-0.084,0.649-0.218,1.292-0.4,1.929c-0.183,0.636-0.42,1.269-0.708,1.9
	c-0.289,0.631-0.643,1.266-1.059,1.905l-0.726-0.442c-0.094-0.062-0.165-0.141-0.212-0.242c-0.047-0.099-0.023-0.241,0.07-0.424
	c0.567-1,0.999-2.06,1.296-3.175C106.979,74.514,107.127,73.366,107.127,72.188z"/>
<path fill="#FFFFFF" d="M232.175,145.98c0,1.044-0.113,1.949-0.337,2.716c-0.226,0.767-0.534,1.401-0.925,1.903
	c-0.395,0.503-0.855,0.878-1.384,1.122c-0.532,0.244-1.103,0.366-1.714,0.366s-1.181-0.122-1.713-0.366
	c-0.53-0.244-0.99-0.619-1.378-1.122c-0.391-0.502-0.695-1.137-0.917-1.903c-0.223-0.768-0.334-1.672-0.334-2.716
	c0-1.045,0.111-1.952,0.334-2.722c0.222-0.77,0.526-1.406,0.917-1.908c0.388-0.503,0.848-0.876,1.378-1.122
	c0.532-0.244,1.102-0.366,1.713-0.366s1.182,0.122,1.714,0.366c0.528,0.245,0.989,0.618,1.384,1.122
	c0.391,0.502,0.699,1.138,0.925,1.908C232.062,144.028,232.175,144.935,232.175,145.98z M230.49,145.98
	c0-0.901-0.073-1.654-0.221-2.259c-0.146-0.606-0.344-1.093-0.591-1.463c-0.247-0.369-0.532-0.632-0.855-0.787
	c-0.322-0.156-0.658-0.233-1.008-0.233s-0.687,0.077-1.008,0.233c-0.322,0.155-0.607,0.418-0.854,0.787
	c-0.247,0.371-0.444,0.857-0.589,1.463c-0.145,0.605-0.217,1.358-0.217,2.259c0,0.899,0.072,1.651,0.217,2.258
	c0.145,0.605,0.342,1.091,0.589,1.458c0.246,0.367,0.531,0.628,0.854,0.783c0.321,0.156,0.658,0.233,1.008,0.233
	s0.686-0.078,1.008-0.233c0.323-0.155,0.608-0.417,0.855-0.783c0.247-0.367,0.444-0.853,0.591-1.458
	C230.417,147.631,230.49,146.879,230.49,145.98z"/>
<path fill="#FFFFFF" d="M233.533,150.987c0-0.149,0.027-0.292,0.083-0.424c0.056-0.133,0.131-0.251,0.229-0.35
	c0.098-0.1,0.212-0.179,0.347-0.237c0.134-0.058,0.277-0.088,0.433-0.088c0.15,0,0.292,0.03,0.426,0.088
	c0.133,0.059,0.249,0.137,0.35,0.237c0.1,0.099,0.179,0.217,0.237,0.35c0.059,0.133,0.088,0.275,0.088,0.424
	c0,0.156-0.029,0.3-0.088,0.434s-0.138,0.25-0.237,0.351c-0.101,0.099-0.217,0.178-0.35,0.233c-0.134,0.056-0.275,0.083-0.426,0.083
	c-0.155,0-0.299-0.027-0.433-0.083c-0.135-0.056-0.249-0.135-0.347-0.233c-0.098-0.101-0.173-0.217-0.229-0.351
	S233.533,151.144,233.533,150.987z"/>
<path fill="#FFFFFF" d="M237.624,143.254c0.084-0.556,0.238-1.044,0.467-1.468c0.228-0.421,0.514-0.775,0.859-1.062
	c0.344-0.287,0.739-0.502,1.188-0.646c0.446-0.145,0.929-0.217,1.445-0.217c0.518,0,0.992,0.073,1.426,0.221
	c0.433,0.146,0.803,0.355,1.112,0.625c0.308,0.269,0.548,0.593,0.72,0.97c0.172,0.378,0.26,0.794,0.26,1.25
	c0,0.384-0.049,0.722-0.143,1.017c-0.094,0.295-0.229,0.553-0.404,0.776c-0.175,0.222-0.387,0.409-0.638,0.563
	c-0.249,0.152-0.53,0.278-0.842,0.378c0.763,0.212,1.334,0.555,1.717,1.029c0.384,0.475,0.575,1.077,0.575,1.804
	c0,0.562-0.106,1.066-0.316,1.512c-0.211,0.448-0.5,0.825-0.867,1.135c-0.365,0.308-0.792,0.544-1.279,0.707
	c-0.486,0.164-1.005,0.246-1.555,0.246c-0.626,0-1.167-0.076-1.615-0.229c-0.45-0.151-0.834-0.366-1.15-0.642
	c-0.316-0.274-0.58-0.604-0.788-0.991c-0.209-0.387-0.385-0.81-0.529-1.271l0.708-0.299c0.185-0.077,0.361-0.1,0.534-0.066
	c0.172,0.032,0.296,0.13,0.375,0.292c0.084,0.167,0.179,0.354,0.288,0.563c0.107,0.208,0.255,0.405,0.436,0.591
	c0.185,0.186,0.415,0.343,0.689,0.471c0.274,0.127,0.62,0.19,1.037,0.19c0.4,0,0.75-0.065,1.05-0.195
	c0.301-0.13,0.55-0.299,0.75-0.508c0.199-0.209,0.351-0.439,0.451-0.696c0.099-0.255,0.149-0.509,0.149-0.758
	c0-0.311-0.04-0.597-0.116-0.858c-0.08-0.26-0.227-0.485-0.446-0.67c-0.219-0.187-0.524-0.333-0.913-0.438
	c-0.389-0.106-0.895-0.159-1.517-0.159v-1.183c0.511-0.005,0.943-0.058,1.297-0.158c0.353-0.101,0.638-0.239,0.854-0.417
	c0.217-0.178,0.374-0.39,0.471-0.633c0.097-0.244,0.146-0.517,0.146-0.817c0-0.328-0.05-0.614-0.149-0.858
	c-0.1-0.245-0.241-0.449-0.421-0.613c-0.182-0.163-0.396-0.287-0.643-0.367c-0.247-0.08-0.515-0.121-0.804-0.121
	s-0.555,0.042-0.8,0.125c-0.244,0.084-0.461,0.201-0.651,0.35c-0.188,0.15-0.346,0.329-0.474,0.533
	c-0.127,0.206-0.22,0.429-0.275,0.667c-0.077,0.212-0.177,0.353-0.296,0.425c-0.119,0.073-0.29,0.089-0.513,0.05L237.624,143.254z"
	/>
<path fill="#FFFFFF" d="M252.358,143.146l-0.392,0.682l-1.408-0.825c-0.101-0.062-0.192-0.124-0.275-0.188
	c-0.082-0.063-0.156-0.14-0.216-0.229c0.081,0.194,0.124,0.403,0.124,0.625v1.617H249.4v-1.608c0-0.111,0.007-0.216,0.021-0.312
	c0.015-0.098,0.043-0.194,0.088-0.287c-0.063,0.077-0.13,0.146-0.209,0.207c-0.078,0.061-0.165,0.12-0.258,0.175l-1.399,0.816
	l-0.394-0.683l1.401-0.817c0.099-0.056,0.196-0.101,0.291-0.137c0.096-0.037,0.193-0.06,0.3-0.071
	c-0.21-0.028-0.408-0.1-0.591-0.217l-1.41-0.825l0.394-0.683l1.408,0.825c0.1,0.061,0.189,0.125,0.271,0.193
	c0.079,0.066,0.15,0.144,0.211,0.233c-0.044-0.095-0.075-0.195-0.095-0.301c-0.021-0.104-0.029-0.213-0.029-0.325v-1.625h0.791
	v1.607c0,0.112-0.008,0.219-0.021,0.322s-0.04,0.202-0.078,0.295c0.062-0.083,0.131-0.154,0.209-0.217
	c0.075-0.061,0.163-0.123,0.258-0.183l1.399-0.809l0.393,0.684l-1.401,0.809c-0.094,0.056-0.188,0.103-0.279,0.141
	c-0.091,0.04-0.188,0.065-0.287,0.076c0.189,0.022,0.379,0.091,0.566,0.208L252.358,143.146z"/>
<path fill="#FFFFFF" d="M261.858,150.721v1.242h-6.465v-1.242h2.532v-7.842c0-0.25,0.009-0.509,0.024-0.774l-2.034,1.724
	c-0.076,0.063-0.154,0.1-0.233,0.117c-0.076,0.018-0.15,0.02-0.219,0.009c-0.07-0.012-0.131-0.035-0.185-0.072
	c-0.053-0.035-0.096-0.073-0.13-0.112l-0.508-0.708l3.583-3.091h1.327v10.75H261.858z"/>
<path fill="#FFFFFF" d="M272.193,145.98c0,1.044-0.114,1.949-0.338,2.716c-0.225,0.767-0.533,1.401-0.925,1.903
	c-0.392,0.503-0.854,0.878-1.384,1.122s-1.103,0.366-1.714,0.366c-0.61,0-1.181-0.122-1.711-0.366
	c-0.532-0.244-0.991-0.619-1.379-1.122c-0.39-0.502-0.695-1.137-0.918-1.903c-0.222-0.768-0.333-1.672-0.333-2.716
	c0-1.045,0.111-1.952,0.333-2.722c0.223-0.77,0.528-1.406,0.918-1.908c0.388-0.503,0.847-0.876,1.379-1.122
	c0.53-0.244,1.101-0.366,1.711-0.366c0.611,0,1.184,0.122,1.714,0.366c0.53,0.245,0.992,0.618,1.384,1.122
	c0.392,0.502,0.7,1.138,0.925,1.908C272.079,144.028,272.193,144.935,272.193,145.98z M270.508,145.98
	c0-0.901-0.072-1.654-0.22-2.259c-0.146-0.606-0.344-1.093-0.591-1.463c-0.247-0.369-0.532-0.632-0.854-0.787
	c-0.323-0.156-0.659-0.233-1.01-0.233c-0.35,0-0.686,0.077-1.008,0.233c-0.321,0.155-0.605,0.418-0.854,0.787
	c-0.247,0.371-0.444,0.857-0.588,1.463c-0.144,0.605-0.218,1.358-0.218,2.259c0,0.899,0.074,1.651,0.218,2.258
	c0.144,0.605,0.341,1.091,0.588,1.458c0.248,0.367,0.532,0.628,0.854,0.783c0.322,0.156,0.658,0.233,1.008,0.233
	c0.351,0,0.687-0.078,1.01-0.233c0.322-0.155,0.607-0.417,0.854-0.783c0.247-0.367,0.444-0.853,0.591-1.458
	C270.436,147.631,270.508,146.879,270.508,145.98z"/>
<path fill="#FFFFFF" d="M219.782,77.569v1.241h-6.468v-1.241h2.533v-7.842c0-0.25,0.009-0.509,0.025-0.774l-2.032,1.724
	c-0.079,0.063-0.156,0.101-0.233,0.117c-0.079,0.018-0.151,0.021-0.223,0.01c-0.067-0.012-0.131-0.035-0.182-0.072
	c-0.054-0.035-0.096-0.073-0.13-0.112l-0.508-0.708l3.584-3.091h1.323v10.75H219.782z"/>
<path fill="#FFFFFF" d="M225.501,68.536c0.144-0.189,0.278-0.373,0.405-0.555c-0.199,0.152-0.424,0.266-0.669,0.344
	c-0.247,0.078-0.509,0.117-0.786,0.117c-0.294,0-0.573-0.05-0.842-0.15c-0.269-0.099-0.507-0.247-0.712-0.44
	c-0.205-0.196-0.369-0.436-0.493-0.721c-0.121-0.285-0.181-0.613-0.181-0.983c0-0.347,0.063-0.675,0.193-0.983
	c0.129-0.306,0.313-0.575,0.547-0.803c0.235-0.228,0.517-0.407,0.845-0.539c0.327-0.131,0.688-0.197,1.082-0.197
	c0.387,0,0.74,0.063,1.058,0.188s0.585,0.303,0.809,0.53c0.222,0.228,0.393,0.5,0.517,0.819c0.122,0.319,0.183,0.668,0.183,1.05
	c0,0.233-0.021,0.456-0.063,0.667c-0.043,0.211-0.105,0.416-0.184,0.617c-0.081,0.199-0.177,0.396-0.291,0.591
	c-0.111,0.194-0.241,0.394-0.386,0.597l-1.916,2.751c-0.053,0.073-0.125,0.134-0.225,0.183c-0.099,0.047-0.211,0.072-0.337,0.072
	h-0.994L225.501,68.536z M223.311,66.07c0,0.493,0.134,0.873,0.401,1.14c0.267,0.266,0.637,0.398,1.11,0.398
	c0.256,0,0.482-0.041,0.679-0.125c0.195-0.083,0.361-0.194,0.496-0.332c0.136-0.14,0.238-0.301,0.309-0.484s0.106-0.375,0.106-0.575
	c0-0.24-0.038-0.459-0.114-0.653s-0.183-0.359-0.32-0.495c-0.136-0.134-0.298-0.239-0.485-0.311
	c-0.188-0.071-0.394-0.108-0.619-0.108c-0.233,0-0.447,0.038-0.64,0.114s-0.357,0.183-0.493,0.32
	c-0.139,0.137-0.243,0.3-0.317,0.489S223.311,65.843,223.311,66.07z"/>
<path fill="#FFFFFF" d="M204.809,100.543c0.561-0.116,1.067-0.175,1.521-0.175c0.57,0,1.074,0.085,1.512,0.255
	c0.438,0.171,0.808,0.405,1.104,0.703c0.297,0.298,0.522,0.649,0.672,1.056c0.151,0.403,0.225,0.844,0.225,1.317
	c0,0.581-0.101,1.108-0.303,1.582c-0.205,0.473-0.486,0.879-0.842,1.215c-0.356,0.335-0.779,0.594-1.264,0.775
	c-0.487,0.18-1.009,0.271-1.571,0.271c-0.331,0-0.645-0.033-0.942-0.099c-0.297-0.066-0.577-0.154-0.837-0.263
	c-0.261-0.11-0.5-0.235-0.722-0.378c-0.222-0.142-0.419-0.292-0.591-0.45l0.458-0.644c0.096-0.142,0.226-0.213,0.388-0.213
	c0.108,0,0.227,0.04,0.355,0.119c0.13,0.079,0.285,0.166,0.464,0.263c0.176,0.098,0.388,0.185,0.632,0.264
	c0.246,0.079,0.536,0.119,0.872,0.119c0.372,0,0.707-0.06,1.005-0.179c0.298-0.121,0.551-0.289,0.757-0.509
	c0.206-0.218,0.364-0.481,0.473-0.787c0.11-0.305,0.164-0.645,0.164-1.016c0-0.331-0.047-0.629-0.146-0.894
	c-0.097-0.264-0.241-0.491-0.435-0.679c-0.194-0.188-0.437-0.333-0.727-0.432c-0.29-0.1-0.63-0.149-1.016-0.149
	c-0.54,0-1.114,0.096-1.727,0.29l-0.939-0.275l0.894-5.18h5.257v0.649c0,0.215-0.067,0.39-0.203,0.524
	c-0.135,0.134-0.36,0.202-0.676,0.202h-3.339L204.809,100.543z"/>
<path fill="#FFFFFF" d="M214.533,100.528c-0.086,0.113-0.171,0.22-0.255,0.325c-0.085,0.104-0.164,0.207-0.242,0.309
	c0.245-0.158,0.515-0.279,0.813-0.366c0.298-0.087,0.622-0.13,0.968-0.13c0.433,0,0.845,0.072,1.236,0.214
	c0.392,0.142,0.737,0.351,1.035,0.626c0.299,0.276,0.534,0.616,0.708,1.024c0.173,0.407,0.259,0.875,0.259,1.405
	c0,0.504-0.092,0.977-0.275,1.417c-0.183,0.439-0.441,0.822-0.775,1.145c-0.334,0.324-0.732,0.58-1.194,0.765
	c-0.464,0.186-0.979,0.278-1.543,0.278c-0.562,0-1.066-0.089-1.516-0.267c-0.452-0.178-0.836-0.432-1.154-0.759
	c-0.319-0.33-0.565-0.726-0.737-1.192c-0.173-0.467-0.261-0.985-0.261-1.555c0-0.49,0.106-1.005,0.317-1.548
	c0.212-0.541,0.546-1.122,1.005-1.737l2.742-3.675c0.076-0.101,0.184-0.187,0.319-0.256c0.139-0.068,0.296-0.103,0.475-0.103h1.33
	L214.533,100.528z M215.236,106.295c0.352,0,0.669-0.057,0.956-0.172c0.284-0.115,0.529-0.271,0.733-0.47
	c0.203-0.198,0.36-0.435,0.471-0.71c0.113-0.276,0.169-0.572,0.169-0.894c0-0.351-0.054-0.666-0.163-0.943
	c-0.11-0.278-0.263-0.512-0.458-0.707c-0.196-0.194-0.432-0.342-0.708-0.443c-0.274-0.102-0.581-0.153-0.918-0.153
	c-0.35,0-0.665,0.061-0.946,0.181c-0.278,0.119-0.518,0.279-0.717,0.481c-0.199,0.201-0.352,0.437-0.459,0.707
	c-0.107,0.27-0.159,0.552-0.159,0.848c0,0.336,0.048,0.644,0.145,0.924c0.097,0.28,0.239,0.519,0.427,0.719
	c0.189,0.198,0.42,0.354,0.692,0.465C214.573,106.24,214.885,106.295,215.236,106.295z"/>
<path fill="#FFFFFF" d="M222.531,100.543c0.56-0.116,1.067-0.175,1.52-0.175c0.571,0,1.075,0.085,1.514,0.255
	c0.438,0.171,0.808,0.405,1.104,0.703c0.297,0.298,0.522,0.649,0.672,1.056c0.151,0.403,0.226,0.844,0.226,1.317
	c0,0.581-0.101,1.108-0.305,1.582c-0.205,0.473-0.484,0.879-0.841,1.215c-0.356,0.335-0.778,0.594-1.265,0.775
	c-0.487,0.18-1.009,0.271-1.57,0.271c-0.331,0-0.646-0.033-0.942-0.099c-0.297-0.066-0.576-0.154-0.837-0.263
	c-0.261-0.11-0.5-0.235-0.722-0.378c-0.223-0.142-0.419-0.292-0.591-0.45l0.457-0.644c0.096-0.142,0.226-0.213,0.389-0.213
	c0.108,0,0.227,0.04,0.355,0.119c0.131,0.079,0.284,0.166,0.464,0.263c0.176,0.098,0.388,0.185,0.633,0.264
	c0.244,0.079,0.535,0.119,0.872,0.119c0.371,0,0.706-0.06,1.004-0.179c0.298-0.121,0.55-0.289,0.756-0.509
	c0.206-0.218,0.365-0.481,0.474-0.787c0.109-0.305,0.164-0.645,0.164-1.016c0-0.331-0.048-0.629-0.146-0.894
	c-0.096-0.264-0.241-0.491-0.435-0.679c-0.195-0.188-0.437-0.333-0.726-0.432c-0.29-0.1-0.63-0.149-1.017-0.149
	c-0.54,0-1.115,0.096-1.727,0.29l-0.938-0.275l0.892-5.18h5.259v0.649c0,0.215-0.068,0.39-0.204,0.524s-0.36,0.202-0.675,0.202
	h-3.34L222.531,100.543z"/>
<path fill="#FFFFFF" d="M229.346,106.525c0-0.137,0.025-0.267,0.075-0.39c0.052-0.122,0.122-0.229,0.211-0.321
	c0.09-0.091,0.195-0.165,0.317-0.218c0.122-0.054,0.255-0.08,0.396-0.08c0.138,0,0.269,0.025,0.391,0.08
	c0.122,0.053,0.229,0.126,0.32,0.218s0.165,0.199,0.218,0.321c0.053,0.123,0.08,0.252,0.08,0.39c0,0.142-0.027,0.275-0.08,0.397
	c-0.053,0.122-0.126,0.229-0.218,0.32c-0.092,0.092-0.198,0.164-0.32,0.214c-0.122,0.051-0.253,0.076-0.391,0.076
	c-0.142,0-0.274-0.025-0.396-0.076c-0.122-0.05-0.228-0.122-0.317-0.214c-0.089-0.091-0.159-0.198-0.211-0.32
	C229.371,106.8,229.346,106.667,229.346,106.525z"/>
<path fill="#FFFFFF" d="M239.681,106.005c0.164,0,0.29,0.048,0.383,0.141c0.092,0.095,0.138,0.219,0.138,0.371v0.902h-7.365v-0.511
	c0-0.102,0.021-0.21,0.063-0.326c0.04-0.114,0.108-0.217,0.206-0.309l3.467-3.475c0.29-0.291,0.553-0.571,0.786-0.841
	c0.235-0.27,0.436-0.539,0.597-0.806c0.163-0.268,0.289-0.542,0.378-0.821c0.089-0.281,0.135-0.577,0.135-0.887
	c0-0.305-0.048-0.573-0.146-0.806c-0.096-0.232-0.229-0.425-0.396-0.576c-0.169-0.154-0.368-0.268-0.597-0.345
	c-0.229-0.076-0.476-0.114-0.74-0.114c-0.267,0-0.509,0.038-0.729,0.114c-0.224,0.078-0.419,0.185-0.593,0.322
	c-0.173,0.137-0.319,0.3-0.436,0.489c-0.117,0.188-0.202,0.393-0.253,0.611c-0.07,0.194-0.162,0.323-0.271,0.389
	c-0.107,0.067-0.269,0.082-0.477,0.046l-0.779-0.137c0.071-0.51,0.212-0.958,0.421-1.345c0.209-0.387,0.471-0.711,0.786-0.974
	c0.315-0.262,0.679-0.46,1.089-0.592c0.409-0.133,0.852-0.2,1.325-0.2c0.479,0,0.92,0.071,1.325,0.21
	c0.407,0.142,0.757,0.343,1.051,0.608c0.296,0.265,0.527,0.587,0.695,0.965c0.168,0.38,0.253,0.81,0.253,1.287
	c0,0.409-0.06,0.787-0.182,1.135c-0.118,0.349-0.281,0.681-0.487,0.997c-0.208,0.316-0.446,0.623-0.717,0.92
	c-0.274,0.298-0.563,0.6-0.869,0.906l-2.78,2.841c0.214-0.055,0.429-0.102,0.646-0.137c0.217-0.037,0.42-0.055,0.616-0.055H239.681z
	"/>
<path fill="#FFFFFF" d="M246.273,103.079c0.199-0.258,0.384-0.514,0.558-0.763c-0.274,0.208-0.581,0.366-0.92,0.474
	c-0.339,0.107-0.7,0.16-1.081,0.16c-0.402,0-0.787-0.068-1.156-0.206c-0.371-0.137-0.698-0.339-0.98-0.608
	c-0.281-0.267-0.507-0.597-0.675-0.988c-0.168-0.393-0.252-0.843-0.252-1.353c0-0.479,0.089-0.929,0.267-1.352
	c0.178-0.422,0.431-0.791,0.754-1.103c0.322-0.313,0.71-0.561,1.16-0.742c0.451-0.18,0.947-0.271,1.487-0.271
	c0.534,0,1.019,0.087,1.454,0.261s0.805,0.416,1.112,0.73c0.304,0.313,0.542,0.689,0.71,1.125c0.168,0.438,0.252,0.919,0.252,1.444
	c0,0.321-0.029,0.627-0.089,0.917c-0.057,0.29-0.141,0.572-0.251,0.848c-0.109,0.275-0.243,0.546-0.397,0.813
	c-0.155,0.268-0.333,0.542-0.532,0.821l-2.634,3.782c-0.071,0.102-0.175,0.186-0.31,0.252c-0.136,0.066-0.29,0.099-0.464,0.099
	h-1.367L246.273,103.079z M243.264,99.687c0,0.678,0.184,1.201,0.551,1.567c0.366,0.366,0.875,0.549,1.527,0.549
	c0.351,0,0.662-0.057,0.932-0.171c0.27-0.115,0.498-0.267,0.684-0.458c0.187-0.191,0.326-0.413,0.425-0.665
	c0.097-0.252,0.145-0.516,0.145-0.791c0-0.331-0.053-0.631-0.156-0.898c-0.104-0.268-0.252-0.494-0.438-0.68
	c-0.19-0.186-0.412-0.328-0.671-0.427c-0.256-0.101-0.539-0.149-0.852-0.149c-0.32,0-0.612,0.051-0.877,0.156
	c-0.265,0.104-0.493,0.25-0.68,0.439c-0.19,0.188-0.334,0.412-0.438,0.672C243.315,99.091,243.264,99.377,243.264,99.687z"/>
<path fill="#FFFFFF" d="M250.819,99.436c0.076-0.51,0.22-0.958,0.428-1.345c0.207-0.387,0.47-0.711,0.787-0.974
	c0.315-0.262,0.679-0.46,1.089-0.592c0.408-0.133,0.852-0.2,1.324-0.2c0.474,0,0.91,0.068,1.306,0.204
	c0.397,0.135,0.738,0.326,1.021,0.572c0.282,0.247,0.503,0.544,0.66,0.89c0.159,0.346,0.238,0.728,0.238,1.146
	c0,0.351-0.044,0.662-0.131,0.932c-0.087,0.27-0.21,0.507-0.37,0.71c-0.162,0.204-0.355,0.375-0.584,0.516
	c-0.23,0.14-0.486,0.256-0.772,0.347c0.699,0.194,1.222,0.509,1.575,0.945c0.35,0.436,0.525,0.986,0.525,1.653
	c0,0.514-0.098,0.977-0.29,1.386c-0.193,0.411-0.458,0.757-0.795,1.039c-0.336,0.284-0.727,0.499-1.172,0.649
	c-0.446,0.15-0.921,0.225-1.424,0.225c-0.576,0-1.07-0.071-1.482-0.21c-0.414-0.14-0.764-0.336-1.054-0.588
	c-0.29-0.252-0.532-0.556-0.722-0.91c-0.192-0.354-0.354-0.742-0.485-1.166l0.647-0.274c0.169-0.072,0.332-0.092,0.49-0.061
	c0.157,0.029,0.272,0.119,0.343,0.267c0.076,0.152,0.166,0.324,0.263,0.516c0.102,0.191,0.233,0.371,0.402,0.542
	c0.168,0.171,0.378,0.314,0.631,0.431c0.251,0.117,0.568,0.176,0.95,0.176c0.367,0,0.688-0.061,0.964-0.18
	c0.273-0.12,0.504-0.276,0.687-0.465c0.185-0.191,0.321-0.404,0.412-0.639c0.092-0.233,0.138-0.465,0.138-0.695
	c0-0.285-0.035-0.548-0.105-0.787c-0.073-0.24-0.209-0.445-0.41-0.616c-0.2-0.169-0.479-0.303-0.835-0.399
	c-0.358-0.098-0.822-0.146-1.393-0.146v-1.085c0.471-0.006,0.865-0.053,1.188-0.145c0.324-0.092,0.585-0.219,0.785-0.383
	c0.198-0.163,0.342-0.355,0.431-0.581c0.088-0.224,0.133-0.473,0.133-0.749c0-0.299-0.046-0.561-0.138-0.787
	c-0.091-0.224-0.22-0.411-0.386-0.562c-0.165-0.149-0.361-0.262-0.589-0.334c-0.225-0.075-0.472-0.112-0.737-0.112
	c-0.264,0-0.508,0.038-0.733,0.114c-0.224,0.078-0.423,0.185-0.595,0.322s-0.319,0.3-0.436,0.489
	c-0.117,0.188-0.201,0.393-0.253,0.611c-0.07,0.194-0.161,0.323-0.271,0.389c-0.108,0.067-0.267,0.082-0.47,0.046L250.819,99.436z"
	/>
<path fill="#FFFFFF" d="M197.209,116.083h3.819v1.268h-3.819V116.083z"/>
<path fill="#FFFFFF" d="M204.809,114.432c0.561-0.117,1.067-0.175,1.521-0.175c0.57,0,1.074,0.085,1.512,0.255
	c0.438,0.171,0.808,0.405,1.104,0.703c0.297,0.298,0.522,0.649,0.672,1.055c0.151,0.404,0.225,0.844,0.225,1.317
	c0,0.581-0.101,1.108-0.303,1.582c-0.205,0.473-0.486,0.879-0.842,1.215c-0.356,0.335-0.779,0.594-1.264,0.775
	c-0.487,0.18-1.009,0.271-1.571,0.271c-0.331,0-0.645-0.033-0.942-0.099c-0.297-0.066-0.577-0.154-0.837-0.263
	c-0.261-0.11-0.5-0.236-0.722-0.378s-0.419-0.293-0.591-0.45l0.458-0.644c0.096-0.142,0.226-0.213,0.388-0.213
	c0.108,0,0.227,0.039,0.355,0.118c0.13,0.079,0.285,0.167,0.464,0.264c0.176,0.098,0.388,0.185,0.632,0.264
	c0.246,0.079,0.536,0.119,0.872,0.119c0.372,0,0.707-0.06,1.005-0.18c0.298-0.121,0.551-0.289,0.757-0.508
	c0.206-0.219,0.364-0.481,0.473-0.787c0.11-0.305,0.164-0.645,0.164-1.016c0-0.331-0.047-0.629-0.146-0.894
	c-0.097-0.264-0.241-0.491-0.435-0.679c-0.194-0.188-0.437-0.333-0.727-0.432c-0.29-0.1-0.63-0.149-1.016-0.149
	c-0.54,0-1.114,0.096-1.727,0.29l-0.939-0.275l0.894-5.18h5.257v0.65c0,0.214-0.067,0.389-0.203,0.524
	c-0.135,0.134-0.36,0.202-0.676,0.202h-3.339L204.809,114.432z"/>
<path fill="#FFFFFF" d="M214.533,114.417c-0.086,0.113-0.171,0.22-0.255,0.325c-0.085,0.104-0.164,0.207-0.242,0.309
	c0.245-0.158,0.515-0.28,0.813-0.367c0.298-0.086,0.622-0.13,0.968-0.13c0.433,0,0.845,0.072,1.236,0.214
	c0.392,0.142,0.737,0.351,1.035,0.626c0.299,0.276,0.534,0.616,0.708,1.024c0.173,0.407,0.259,0.875,0.259,1.405
	c0,0.504-0.092,0.976-0.275,1.417c-0.183,0.439-0.441,0.822-0.775,1.145c-0.334,0.324-0.732,0.58-1.194,0.765
	c-0.464,0.186-0.979,0.278-1.543,0.278c-0.562,0-1.066-0.089-1.516-0.267c-0.452-0.178-0.836-0.432-1.154-0.76
	c-0.319-0.33-0.565-0.726-0.737-1.192c-0.173-0.467-0.261-0.985-0.261-1.555c0-0.49,0.106-1.005,0.317-1.548
	c0.212-0.542,0.546-1.122,1.005-1.737l2.742-3.675c0.076-0.101,0.184-0.187,0.319-0.256c0.139-0.068,0.296-0.104,0.475-0.104h1.33
	L214.533,114.417z M215.236,120.185c0.352,0,0.669-0.057,0.956-0.172c0.284-0.115,0.529-0.272,0.733-0.47
	c0.203-0.198,0.36-0.435,0.471-0.711c0.113-0.275,0.169-0.572,0.169-0.894c0-0.352-0.054-0.666-0.163-0.943
	c-0.11-0.278-0.263-0.513-0.458-0.707c-0.196-0.194-0.432-0.342-0.708-0.443c-0.274-0.102-0.581-0.153-0.918-0.153
	c-0.35,0-0.665,0.061-0.946,0.18c-0.278,0.12-0.518,0.28-0.717,0.482c-0.199,0.201-0.352,0.437-0.459,0.707
	c-0.107,0.271-0.159,0.552-0.159,0.848c0,0.336,0.048,0.645,0.145,0.924c0.097,0.281,0.239,0.52,0.427,0.719
	c0.189,0.198,0.42,0.354,0.692,0.465C214.573,120.13,214.885,120.185,215.236,120.185z"/>
<path fill="#FFFFFF" d="M222.531,114.432c0.56-0.117,1.067-0.175,1.52-0.175c0.571,0,1.075,0.085,1.514,0.255
	c0.438,0.171,0.808,0.405,1.104,0.703c0.297,0.298,0.522,0.649,0.672,1.055c0.151,0.404,0.226,0.844,0.226,1.317
	c0,0.581-0.101,1.108-0.305,1.582c-0.205,0.473-0.484,0.879-0.841,1.215c-0.356,0.335-0.778,0.594-1.265,0.775
	c-0.487,0.18-1.009,0.271-1.57,0.271c-0.331,0-0.646-0.033-0.942-0.099c-0.297-0.066-0.576-0.154-0.837-0.263
	c-0.261-0.11-0.5-0.236-0.722-0.378c-0.223-0.143-0.419-0.293-0.591-0.45l0.457-0.644c0.096-0.142,0.226-0.213,0.389-0.213
	c0.108,0,0.227,0.039,0.355,0.118c0.131,0.079,0.284,0.167,0.464,0.264c0.176,0.098,0.388,0.185,0.633,0.264
	c0.244,0.079,0.535,0.119,0.872,0.119c0.371,0,0.706-0.06,1.004-0.18c0.298-0.121,0.55-0.289,0.756-0.508
	c0.206-0.219,0.365-0.481,0.474-0.787c0.109-0.305,0.164-0.645,0.164-1.016c0-0.331-0.048-0.629-0.146-0.894
	c-0.096-0.264-0.241-0.491-0.435-0.679c-0.195-0.188-0.437-0.333-0.726-0.432c-0.29-0.1-0.63-0.149-1.017-0.149
	c-0.54,0-1.115,0.096-1.727,0.29l-0.938-0.275l0.892-5.18h5.259v0.65c0,0.214-0.068,0.389-0.204,0.524
	c-0.136,0.134-0.36,0.202-0.675,0.202h-3.34L222.531,114.432z"/>
<path fill="#FFFFFF" d="M229.346,120.415c0-0.137,0.025-0.267,0.075-0.39c0.052-0.122,0.122-0.229,0.211-0.322
	c0.09-0.09,0.195-0.164,0.317-0.217c0.122-0.054,0.255-0.08,0.396-0.08c0.138,0,0.269,0.025,0.391,0.08
	c0.122,0.053,0.229,0.126,0.32,0.217c0.092,0.092,0.165,0.2,0.218,0.322c0.053,0.123,0.08,0.252,0.08,0.39
	c0,0.142-0.027,0.275-0.08,0.397s-0.126,0.229-0.218,0.32c-0.092,0.092-0.198,0.164-0.32,0.214
	c-0.122,0.052-0.253,0.076-0.391,0.076c-0.142,0-0.274-0.024-0.396-0.076c-0.122-0.05-0.228-0.122-0.317-0.214
	c-0.089-0.091-0.159-0.198-0.211-0.32C229.371,120.689,229.346,120.557,229.346,120.415z"/>
<path fill="#FFFFFF" d="M239.681,119.895c0.164,0,0.29,0.048,0.383,0.141c0.092,0.095,0.138,0.219,0.138,0.37v0.902h-7.365v-0.511
	c0-0.102,0.021-0.21,0.063-0.326c0.04-0.114,0.108-0.217,0.206-0.309l3.467-3.475c0.29-0.291,0.553-0.571,0.786-0.841
	c0.235-0.27,0.436-0.539,0.597-0.806c0.163-0.268,0.289-0.542,0.378-0.821c0.089-0.28,0.135-0.576,0.135-0.887
	c0-0.305-0.048-0.574-0.146-0.806c-0.096-0.232-0.229-0.425-0.396-0.576c-0.169-0.154-0.368-0.268-0.597-0.345
	c-0.229-0.076-0.476-0.114-0.74-0.114c-0.267,0-0.509,0.038-0.729,0.114c-0.224,0.078-0.419,0.185-0.593,0.322
	c-0.173,0.137-0.319,0.299-0.436,0.488c-0.117,0.188-0.202,0.394-0.253,0.612c-0.07,0.194-0.162,0.323-0.271,0.389
	c-0.107,0.067-0.269,0.082-0.477,0.046l-0.779-0.137c0.071-0.51,0.212-0.958,0.421-1.346c0.209-0.386,0.471-0.71,0.786-0.974
	c0.315-0.261,0.679-0.459,1.089-0.591c0.409-0.133,0.852-0.2,1.325-0.2c0.479,0,0.92,0.07,1.325,0.21
	c0.407,0.141,0.757,0.343,1.051,0.607c0.296,0.265,0.527,0.588,0.695,0.966c0.168,0.38,0.253,0.81,0.253,1.287
	c0,0.408-0.06,0.787-0.182,1.135c-0.118,0.349-0.281,0.681-0.487,0.997c-0.208,0.316-0.446,0.623-0.717,0.92
	c-0.274,0.298-0.563,0.6-0.869,0.906l-2.78,2.842c0.214-0.055,0.429-0.102,0.646-0.137c0.217-0.037,0.42-0.055,0.616-0.055H239.681z
	"/>
<path fill="#FFFFFF" d="M246.273,116.969c0.199-0.259,0.384-0.514,0.558-0.764c-0.274,0.209-0.581,0.366-0.92,0.474
	s-0.7,0.16-1.081,0.16c-0.402,0-0.787-0.068-1.156-0.206c-0.371-0.137-0.698-0.339-0.98-0.608c-0.281-0.267-0.507-0.597-0.675-0.989
	c-0.168-0.392-0.252-0.842-0.252-1.352c0-0.479,0.089-0.929,0.267-1.352c0.178-0.422,0.431-0.791,0.754-1.103
	c0.322-0.313,0.71-0.56,1.16-0.742c0.451-0.181,0.947-0.271,1.487-0.271c0.534,0,1.019,0.087,1.454,0.261
	c0.436,0.173,0.805,0.416,1.112,0.73c0.304,0.313,0.542,0.689,0.71,1.125c0.168,0.438,0.252,0.919,0.252,1.444
	c0,0.32-0.029,0.627-0.089,0.917c-0.057,0.291-0.141,0.572-0.251,0.848c-0.109,0.275-0.243,0.546-0.397,0.813
	c-0.155,0.268-0.333,0.542-0.532,0.821l-2.634,3.782c-0.071,0.101-0.175,0.186-0.31,0.252c-0.136,0.067-0.29,0.099-0.464,0.099
	h-1.367L246.273,116.969z M243.264,113.577c0,0.678,0.184,1.2,0.551,1.567c0.366,0.366,0.875,0.549,1.527,0.549
	c0.351,0,0.662-0.057,0.932-0.171c0.27-0.115,0.498-0.267,0.684-0.458c0.187-0.191,0.326-0.412,0.425-0.664
	c0.097-0.252,0.145-0.516,0.145-0.791c0-0.331-0.053-0.631-0.156-0.898c-0.104-0.268-0.252-0.494-0.438-0.68
	c-0.19-0.186-0.412-0.329-0.671-0.427c-0.256-0.101-0.539-0.149-0.852-0.149c-0.32,0-0.612,0.051-0.877,0.155
	c-0.265,0.105-0.493,0.251-0.68,0.44c-0.19,0.188-0.334,0.412-0.438,0.672C243.315,112.981,243.264,113.266,243.264,113.577z"/>
<path fill="#FFFFFF" d="M257.68,120.17v1.138h-5.929v-1.138h2.322v-7.189c0-0.229,0.006-0.465,0.023-0.71l-1.864,1.582
	c-0.072,0.057-0.144,0.092-0.214,0.107c-0.071,0.015-0.14,0.018-0.203,0.008c-0.063-0.011-0.121-0.033-0.167-0.065
	c-0.05-0.034-0.089-0.068-0.119-0.103l-0.467-0.65l3.285-2.833h1.216v9.854H257.68z"/>
<rect x="201.832" y="124" fill="#FFFFFF" width="55" height="1"/>
<path fill="#FFFFFF" d="M229.871,189.312c0.178,0,0.317,0.052,0.415,0.154c0.102,0.104,0.151,0.237,0.151,0.404v0.983h-8.034v-0.56
	c0-0.111,0.024-0.229,0.067-0.354c0.044-0.124,0.118-0.237,0.225-0.337l3.784-3.792c0.316-0.316,0.603-0.623,0.857-0.917
	c0.256-0.295,0.472-0.587,0.65-0.879c0.177-0.291,0.315-0.59,0.412-0.896c0.097-0.305,0.146-0.627,0.146-0.965
	c0-0.334-0.053-0.628-0.159-0.882c-0.105-0.252-0.25-0.462-0.433-0.627c-0.183-0.168-0.4-0.292-0.649-0.376
	c-0.25-0.083-0.521-0.125-0.809-0.125c-0.291,0-0.555,0.042-0.796,0.125c-0.243,0.084-0.458,0.2-0.646,0.35
	c-0.189,0.151-0.349,0.329-0.477,0.534c-0.127,0.206-0.22,0.428-0.274,0.667c-0.078,0.211-0.176,0.352-0.296,0.424
	c-0.118,0.073-0.293,0.09-0.521,0.05l-0.851-0.149c0.077-0.556,0.231-1.044,0.459-1.468c0.228-0.421,0.514-0.775,0.858-1.061
	c0.344-0.286,0.74-0.503,1.188-0.646c0.447-0.146,0.929-0.217,1.445-0.217c0.521,0,1.006,0.076,1.446,0.229
	c0.441,0.154,0.823,0.374,1.146,0.663c0.323,0.289,0.575,0.64,0.758,1.056c0.184,0.413,0.276,0.881,0.276,1.402
	c0,0.445-0.065,0.857-0.196,1.238s-0.309,0.743-0.534,1.087c-0.226,0.345-0.485,0.68-0.782,1.004
	c-0.297,0.326-0.613,0.655-0.946,0.987l-3.033,3.101c0.233-0.061,0.468-0.111,0.704-0.149c0.235-0.039,0.46-0.059,0.671-0.059
	H229.871z"/>
<path fill="#FFFFFF" d="M245.839,182.037l-0.395,0.682l-1.407-0.824c-0.101-0.062-0.191-0.123-0.274-0.188
	c-0.084-0.063-0.156-0.14-0.217-0.229c0.083,0.194,0.125,0.403,0.125,0.625v1.617h-0.793v-1.608c0-0.111,0.009-0.216,0.021-0.312
	c0.014-0.098,0.045-0.194,0.088-0.288c-0.062,0.077-0.131,0.146-0.209,0.207c-0.078,0.062-0.163,0.12-0.258,0.176l-1.399,0.816
	l-0.393-0.683l1.401-0.817c0.099-0.056,0.194-0.102,0.29-0.138c0.095-0.036,0.195-0.06,0.301-0.07
	c-0.212-0.028-0.41-0.101-0.591-0.217l-1.409-0.824l0.393-0.685l1.407,0.826c0.101,0.06,0.19,0.124,0.271,0.192
	c0.081,0.065,0.153,0.144,0.212,0.233c-0.043-0.096-0.076-0.196-0.094-0.302c-0.02-0.104-0.031-0.213-0.031-0.325v-1.624h0.793
	v1.607c0,0.111-0.007,0.219-0.022,0.321c-0.013,0.104-0.038,0.202-0.078,0.296c0.063-0.083,0.13-0.155,0.208-0.218
	c0.078-0.061,0.163-0.122,0.259-0.182l1.399-0.809l0.393,0.683l-1.4,0.809c-0.093,0.056-0.187,0.103-0.279,0.142
	c-0.091,0.039-0.188,0.064-0.286,0.075c0.188,0.021,0.378,0.091,0.565,0.208L245.839,182.037z"/>
<path fill="#FFFFFF" d="M233.514,177.93c0.055-0.37,0.159-0.697,0.311-0.979c0.15-0.281,0.344-0.518,0.571-0.708
	c0.23-0.19,0.493-0.335,0.792-0.431c0.298-0.097,0.62-0.145,0.965-0.145s0.66,0.049,0.95,0.146c0.288,0.1,0.535,0.238,0.741,0.417
	c0.206,0.18,0.366,0.396,0.479,0.648c0.116,0.25,0.174,0.529,0.174,0.833c0,0.254-0.032,0.48-0.094,0.678
	c-0.063,0.195-0.154,0.368-0.271,0.517c-0.116,0.148-0.257,0.272-0.424,0.375c-0.167,0.102-0.354,0.186-0.563,0.252
	c0.508,0.141,0.891,0.371,1.146,0.687c0.256,0.317,0.383,0.717,0.383,1.203c0,0.375-0.07,0.711-0.211,1.008
	c-0.141,0.299-0.333,0.55-0.577,0.756c-0.246,0.205-0.529,0.362-0.854,0.473c-0.323,0.108-0.67,0.164-1.036,0.164
	c-0.418,0-0.776-0.051-1.076-0.152c-0.302-0.103-0.557-0.245-0.769-0.428c-0.21-0.185-0.385-0.404-0.522-0.662
	c-0.141-0.258-0.259-0.54-0.354-0.849l0.472-0.199c0.123-0.051,0.24-0.065,0.355-0.044c0.113,0.022,0.198,0.086,0.25,0.195
	c0.055,0.109,0.119,0.236,0.191,0.374c0.071,0.139,0.169,0.27,0.292,0.395c0.121,0.123,0.274,0.229,0.457,0.313
	c0.185,0.086,0.416,0.129,0.692,0.129c0.266,0,0.5-0.045,0.699-0.131c0.202-0.087,0.367-0.199,0.501-0.34
	c0.134-0.139,0.233-0.292,0.3-0.463c0.067-0.17,0.101-0.339,0.101-0.506c0-0.207-0.026-0.398-0.079-0.571
	c-0.051-0.176-0.15-0.323-0.295-0.448c-0.146-0.124-0.351-0.222-0.609-0.291c-0.26-0.07-0.597-0.106-1.011-0.106v-0.787
	c0.339-0.005,0.628-0.04,0.863-0.106c0.235-0.067,0.426-0.16,0.569-0.277c0.145-0.119,0.249-0.26,0.315-0.423
	c0.063-0.164,0.096-0.345,0.096-0.545c0-0.219-0.034-0.408-0.1-0.573c-0.067-0.163-0.159-0.298-0.282-0.407
	c-0.118-0.108-0.263-0.19-0.427-0.245c-0.164-0.054-0.343-0.08-0.535-0.08s-0.37,0.027-0.535,0.083
	c-0.163,0.057-0.307,0.134-0.433,0.233c-0.126,0.101-0.231,0.218-0.315,0.355c-0.086,0.137-0.147,0.286-0.185,0.445
	c-0.052,0.141-0.117,0.234-0.197,0.282s-0.193,0.061-0.341,0.033L233.514,177.93z"/>
<path fill="#FFFFFF" d="M259.262,180.816v1.24h-6.468v-1.24h2.533v-7.844c0-0.249,0.008-0.508,0.025-0.773l-2.034,1.724
	c-0.077,0.063-0.156,0.1-0.233,0.116c-0.077,0.018-0.15,0.021-0.221,0.01c-0.069-0.013-0.13-0.035-0.184-0.072
	c-0.052-0.034-0.096-0.072-0.129-0.112l-0.509-0.708l3.585-3.092h1.324v10.752H259.262z"/>
<path fill="#FFFFFF" d="M258.96,202.391c0.18,0,0.317,0.052,0.418,0.154c0.1,0.104,0.148,0.238,0.148,0.404v0.984h-8.032v-0.56
	c0-0.111,0.021-0.229,0.065-0.354c0.046-0.126,0.119-0.237,0.226-0.339l3.783-3.79c0.318-0.318,0.603-0.623,0.857-0.917
	c0.257-0.295,0.474-0.588,0.651-0.879c0.178-0.292,0.314-0.59,0.412-0.897c0.099-0.304,0.147-0.626,0.147-0.966
	c0-0.333-0.055-0.626-0.16-0.88c-0.104-0.252-0.25-0.462-0.433-0.627c-0.183-0.168-0.4-0.292-0.65-0.376
	c-0.25-0.083-0.52-0.125-0.808-0.125c-0.289,0-0.554,0.042-0.795,0.125c-0.244,0.084-0.459,0.2-0.646,0.35
	c-0.19,0.15-0.349,0.328-0.477,0.532c-0.127,0.207-0.22,0.43-0.275,0.668c-0.077,0.212-0.177,0.353-0.296,0.425
	s-0.293,0.09-0.521,0.05l-0.85-0.149c0.078-0.556,0.23-1.044,0.459-1.468c0.228-0.421,0.513-0.775,0.856-1.062
	c0.345-0.286,0.741-0.502,1.188-0.646c0.448-0.146,0.93-0.217,1.446-0.217c0.521,0,1.003,0.076,1.446,0.229
	c0.441,0.153,0.823,0.373,1.145,0.663c0.322,0.288,0.575,0.64,0.76,1.054c0.183,0.415,0.273,0.883,0.273,1.404
	c0,0.445-0.065,0.857-0.195,1.237c-0.13,0.381-0.309,0.743-0.533,1.088c-0.226,0.345-0.487,0.68-0.782,1.003
	c-0.298,0.326-0.613,0.656-0.947,0.988l-3.032,3.101c0.232-0.062,0.466-0.111,0.702-0.15c0.236-0.038,0.462-0.059,0.674-0.059
	H258.96z"/>
<rect x="247.832" y="187" fill="#FFFFFF" width="14" height="1"/>
<path fill="#FFFFFF" d="M226.447,226.822h4.167v1.382h-4.167V226.822z"/>
<path fill="#FFFFFF" d="M235.682,225.005c-0.095,0.121-0.189,0.24-0.279,0.354c-0.092,0.114-0.18,0.227-0.264,0.339
	c0.267-0.174,0.563-0.306,0.887-0.401c0.326-0.093,0.678-0.141,1.056-0.141c0.473,0,0.922,0.077,1.351,0.233
	c0.427,0.154,0.804,0.382,1.129,0.684c0.325,0.3,0.581,0.671,0.771,1.116c0.188,0.445,0.282,0.955,0.282,1.532
	c0,0.552-0.1,1.066-0.299,1.547c-0.2,0.48-0.482,0.898-0.846,1.25c-0.363,0.354-0.799,0.631-1.305,0.834
	c-0.505,0.202-1.067,0.304-1.682,0.304s-1.164-0.097-1.656-0.293c-0.491-0.193-0.911-0.47-1.258-0.827
	c-0.348-0.359-0.616-0.793-0.804-1.302c-0.189-0.507-0.284-1.072-0.284-1.695c0-0.533,0.115-1.096,0.347-1.688
	c0.229-0.591,0.594-1.224,1.095-1.896l2.993-4.008c0.082-0.111,0.199-0.205,0.35-0.279c0.15-0.075,0.321-0.112,0.517-0.112h1.449
	L235.682,225.005z M236.446,231.297c0.386,0,0.732-0.063,1.042-0.187c0.313-0.127,0.578-0.298,0.8-0.513
	c0.223-0.218,0.396-0.475,0.52-0.776c0.121-0.3,0.181-0.624,0.181-0.975c0-0.383-0.06-0.727-0.179-1.028
	c-0.119-0.303-0.285-0.561-0.5-0.772c-0.214-0.21-0.47-0.371-0.77-0.482c-0.302-0.111-0.636-0.167-1.001-0.167
	c-0.383,0-0.728,0.065-1.034,0.196c-0.305,0.13-0.566,0.306-0.782,0.525c-0.218,0.219-0.384,0.476-0.501,0.771
	c-0.116,0.294-0.173,0.603-0.173,0.925c0,0.366,0.051,0.702,0.157,1.008c0.105,0.307,0.261,0.567,0.467,0.784
	s0.456,0.387,0.754,0.508C235.724,231.236,236.064,231.297,236.446,231.297z"/>
<path fill="#FFFFFF" d="M199.015,214.836c0.613-0.127,1.165-0.191,1.661-0.191c0.621,0,1.171,0.094,1.649,0.279
	c0.478,0.186,0.879,0.443,1.205,0.767c0.324,0.325,0.569,0.708,0.731,1.149c0.164,0.443,0.247,0.922,0.247,1.438
	c0,0.633-0.111,1.208-0.333,1.726c-0.224,0.517-0.529,0.957-0.918,1.325c-0.388,0.366-0.849,0.647-1.379,0.845
	c-0.53,0.198-1.102,0.296-1.714,0.296c-0.359,0-0.702-0.035-1.028-0.109c-0.324-0.071-0.628-0.166-0.912-0.287
	c-0.283-0.119-0.546-0.256-0.788-0.412c-0.241-0.154-0.456-0.318-0.646-0.49l0.5-0.7c0.104-0.156,0.247-0.233,0.425-0.233
	c0.117,0,0.247,0.042,0.389,0.128c0.141,0.086,0.309,0.183,0.504,0.288c0.193,0.106,0.425,0.201,0.691,0.287
	s0.584,0.129,0.949,0.129c0.406,0,0.771-0.064,1.097-0.194c0.326-0.13,0.6-0.317,0.824-0.555c0.226-0.239,0.397-0.525,0.518-0.858
	c0.119-0.333,0.179-0.703,0.179-1.108c0-0.361-0.053-0.687-0.158-0.976c-0.106-0.289-0.264-0.535-0.475-0.74
	c-0.212-0.206-0.476-0.364-0.793-0.473c-0.315-0.108-0.687-0.162-1.106-0.162c-0.589,0-1.219,0.105-1.884,0.317l-1.025-0.3
	l0.975-5.651h5.734v0.708c0,0.233-0.074,0.425-0.223,0.57c-0.146,0.148-0.393,0.223-0.736,0.223h-3.642L199.015,214.836z"/>
<path fill="#FFFFFF" d="M208.684,214.836c0.61-0.127,1.164-0.191,1.658-0.191c0.622,0,1.172,0.094,1.649,0.279
	c0.479,0.186,0.879,0.443,1.204,0.767c0.325,0.325,0.569,0.708,0.735,1.149c0.163,0.443,0.243,0.922,0.243,1.438
	c0,0.633-0.111,1.208-0.332,1.726c-0.222,0.517-0.527,0.957-0.917,1.325c-0.389,0.366-0.847,0.647-1.379,0.845
	c-0.53,0.198-1.102,0.296-1.712,0.296c-0.361,0-0.705-0.035-1.029-0.109c-0.326-0.071-0.63-0.166-0.912-0.287
	c-0.284-0.119-0.546-0.256-0.787-0.412c-0.244-0.154-0.459-0.318-0.646-0.49l0.498-0.7c0.106-0.156,0.247-0.233,0.425-0.233
	c0.118,0,0.245,0.042,0.388,0.128c0.144,0.086,0.31,0.183,0.503,0.288c0.196,0.106,0.426,0.201,0.692,0.287
	c0.268,0.086,0.583,0.129,0.951,0.129c0.405,0,0.771-0.064,1.097-0.194c0.323-0.13,0.6-0.317,0.824-0.555
	c0.226-0.239,0.397-0.525,0.517-0.858s0.179-0.703,0.179-1.108c0-0.361-0.051-0.687-0.157-0.976
	c-0.105-0.289-0.265-0.535-0.475-0.74c-0.212-0.206-0.476-0.364-0.792-0.473c-0.318-0.108-0.687-0.162-1.109-0.162
	c-0.589,0-1.216,0.105-1.884,0.317l-1.024-0.3l0.975-5.651h5.733v0.708c0,0.233-0.073,0.425-0.22,0.57
	c-0.149,0.148-0.393,0.223-0.738,0.223h-3.643L208.684,214.836z"/>
<path fill="#FFFFFF" d="M203.85,236.711c0.61-0.126,1.164-0.189,1.659-0.189c0.622,0,1.172,0.093,1.65,0.278
	c0.477,0.186,0.879,0.442,1.203,0.767c0.326,0.325,0.569,0.708,0.733,1.15c0.163,0.441,0.246,0.921,0.246,1.438
	c0,0.634-0.111,1.208-0.333,1.726c-0.222,0.517-0.529,0.957-0.916,1.325c-0.39,0.365-0.85,0.648-1.382,0.845
	c-0.528,0.198-1.101,0.296-1.711,0.296c-0.361,0-0.704-0.035-1.028-0.108c-0.325-0.072-0.63-0.167-0.914-0.287
	c-0.282-0.12-0.546-0.257-0.787-0.413c-0.241-0.154-0.457-0.318-0.646-0.491l0.5-0.699c0.104-0.156,0.246-0.233,0.426-0.233
	c0.116,0,0.245,0.042,0.387,0.129c0.142,0.085,0.31,0.182,0.504,0.288c0.193,0.104,0.425,0.2,0.692,0.286
	c0.267,0.086,0.583,0.129,0.95,0.129c0.404,0,0.771-0.064,1.096-0.194c0.324-0.131,0.6-0.316,0.824-0.555
	c0.226-0.239,0.396-0.526,0.516-0.858c0.12-0.333,0.179-0.704,0.179-1.109c0-0.36-0.051-0.686-0.156-0.975
	c-0.106-0.289-0.264-0.536-0.476-0.741c-0.212-0.206-0.475-0.363-0.791-0.472c-0.317-0.109-0.687-0.161-1.109-0.161
	c-0.589,0-1.216,0.104-1.883,0.316l-1.026-0.301l0.977-5.65h5.732v0.708c0,0.232-0.073,0.424-0.22,0.571
	c-0.147,0.147-0.393,0.221-0.737,0.221h-3.642L203.85,236.711z"/>
<rect x="198.832" y="227" fill="#FFFFFF" width="13" height="1"/>
<path fill="#FFFFFF" d="M194.061,243.801c-13.757-20.519-0.455-32.581,0.117-33.084l0.917,1.044
	c-0.536,0.472-12.967,11.749,0.119,31.267L194.061,243.801z"/>
<path fill="#FFFFFF" d="M216.923,243.801l-1.153-0.773c13.086-19.518,0.656-30.795,0.12-31.267l0.917-1.044
	C217.379,211.221,230.68,223.282,216.923,243.801z"/>
<path fill="#FFFFFF" d="M49.529,183.595v1.239h-6.467v-1.239h2.533v-7.844c0-0.249,0.009-0.509,0.025-0.774l-2.033,1.725
	c-0.078,0.063-0.155,0.1-0.233,0.116c-0.078,0.018-0.151,0.021-0.221,0.01c-0.069-0.013-0.13-0.035-0.184-0.071
	c-0.053-0.036-0.096-0.074-0.129-0.113l-0.508-0.708l3.583-3.092h1.326v10.752H49.529z"/>
<path fill="#FFFFFF" d="M47.637,200.469c0.745,0.223,1.31,0.58,1.696,1.075c0.386,0.494,0.58,1.12,0.58,1.875
	c0,0.522-0.099,0.995-0.297,1.417c-0.197,0.423-0.475,0.781-0.833,1.079c-0.358,0.297-0.788,0.525-1.288,0.688
	c-0.5,0.161-1.05,0.241-1.65,0.241s-1.151-0.08-1.65-0.241c-0.5-0.162-0.929-0.391-1.288-0.688
	c-0.358-0.298-0.637-0.656-0.833-1.079c-0.197-0.422-0.296-0.895-0.296-1.417c0-0.755,0.193-1.381,0.58-1.875
	c0.385-0.495,0.951-0.853,1.695-1.075c-0.616-0.232-1.081-0.582-1.392-1.046c-0.311-0.463-0.467-1.015-0.467-1.654
	c0-0.444,0.087-0.858,0.263-1.246c0.175-0.386,0.422-0.72,0.742-1.003c0.319-0.283,0.704-0.507,1.154-0.667
	c0.45-0.162,0.947-0.241,1.492-0.241c0.544,0,1.041,0.079,1.492,0.241c0.45,0.16,0.834,0.384,1.154,0.667s0.566,0.617,0.742,1.003
	c0.175,0.388,0.263,0.802,0.263,1.246c0,0.64-0.155,1.191-0.467,1.654C48.718,199.887,48.254,200.236,47.637,200.469z
	 M45.846,205.553c0.377,0,0.714-0.053,1.008-0.158c0.294-0.106,0.545-0.254,0.75-0.445c0.205-0.192,0.361-0.423,0.467-0.688
	c0.105-0.268,0.158-0.56,0.158-0.875c0-0.39-0.064-0.725-0.191-1.005c-0.128-0.28-0.301-0.512-0.517-0.691
	c-0.217-0.182-0.469-0.314-0.758-0.401c-0.289-0.085-0.594-0.128-0.917-0.128c-0.328,0-0.637,0.043-0.925,0.128
	c-0.289,0.087-0.542,0.22-0.758,0.401c-0.217,0.18-0.388,0.411-0.513,0.691s-0.187,0.615-0.187,1.005
	c0,0.315,0.052,0.607,0.158,0.875c0.106,0.265,0.261,0.495,0.467,0.688c0.206,0.191,0.456,0.339,0.75,0.445
	C45.132,205.5,45.468,205.553,45.846,205.553z M45.846,195.861c-0.345,0-0.646,0.05-0.904,0.152
	c-0.258,0.104-0.474,0.244-0.646,0.422c-0.173,0.179-0.301,0.384-0.387,0.617c-0.086,0.233-0.129,0.482-0.129,0.75
	c0,0.261,0.038,0.515,0.113,0.762c0.075,0.248,0.194,0.467,0.358,0.659c0.164,0.191,0.376,0.347,0.638,0.463
	c0.261,0.117,0.581,0.175,0.958,0.175c0.372,0,0.69-0.058,0.954-0.175c0.264-0.116,0.477-0.271,0.642-0.463
	c0.164-0.192,0.284-0.411,0.359-0.659c0.074-0.247,0.111-0.501,0.111-0.762c0-0.268-0.042-0.517-0.128-0.75
	s-0.216-0.438-0.387-0.617c-0.172-0.178-0.388-0.318-0.646-0.422C46.491,195.911,46.19,195.861,45.846,195.861z"/>
<rect x="38.832" y="189" fill="#FFFFFF" width="13" height="1"/>
<path fill="#FFFFFF" d="M69.397,177.318c-0.095,0.121-0.188,0.24-0.28,0.354c-0.092,0.114-0.179,0.227-0.262,0.337
	c0.266-0.172,0.563-0.305,0.887-0.399c0.325-0.094,0.677-0.141,1.054-0.141c0.473,0,0.922,0.077,1.35,0.233
	c0.428,0.154,0.805,0.382,1.129,0.683s0.582,0.672,0.771,1.117c0.188,0.445,0.282,0.954,0.282,1.532c0,0.552-0.1,1.066-0.299,1.547
	c-0.2,0.479-0.482,0.897-0.846,1.25c-0.364,0.354-0.799,0.631-1.304,0.834c-0.506,0.202-1.067,0.303-1.684,0.303
	c-0.611,0-1.163-0.096-1.655-0.292c-0.492-0.193-0.911-0.47-1.258-0.828c-0.348-0.358-0.615-0.792-0.805-1.301
	c-0.188-0.507-0.284-1.073-0.284-1.695c0-0.533,0.116-1.096,0.346-1.688c0.231-0.592,0.596-1.224,1.096-1.896l2.992-4.008
	c0.083-0.111,0.201-0.205,0.35-0.28c0.15-0.074,0.322-0.111,0.517-0.111h1.45L69.397,177.318z M70.163,183.61
	c0.384,0,0.731-0.063,1.042-0.187c0.312-0.127,0.578-0.298,0.8-0.514c0.223-0.217,0.395-0.475,0.517-0.775
	c0.122-0.3,0.183-0.624,0.183-0.976c0-0.382-0.059-0.726-0.179-1.027c-0.12-0.303-0.286-0.562-0.5-0.772
	c-0.214-0.21-0.471-0.372-0.771-0.482c-0.299-0.111-0.633-0.168-0.999-0.168c-0.384,0-0.729,0.065-1.034,0.197
	c-0.306,0.13-0.567,0.306-0.784,0.525c-0.217,0.218-0.383,0.476-0.5,0.77c-0.116,0.295-0.175,0.603-0.175,0.926
	c0,0.365,0.053,0.702,0.159,1.008c0.105,0.306,0.261,0.566,0.466,0.783c0.205,0.218,0.457,0.387,0.754,0.509
	C69.439,183.549,69.78,183.61,70.163,183.61z"/>
<path fill="#FFFFFF" d="M84.222,180.469v0.941c0,0.095-0.03,0.176-0.091,0.241c-0.062,0.066-0.147,0.101-0.259,0.101h-1.383v3.082
	h-1.425v-3.082h-5.25c-0.123,0-0.226-0.035-0.309-0.104c-0.084-0.068-0.139-0.157-0.167-0.264l-0.167-0.832l5.784-7.692h1.534v7.609
	H84.222z M81.063,180.469v-4.668c0-0.161,0.004-0.332,0.013-0.512c0.008-0.182,0.026-0.368,0.054-0.563l-4.191,5.743H81.063z"/>
<path fill="#FFFFFF" d="M78.697,205.47v1.241H72.23v-1.241h2.533v-7.843c0-0.249,0.009-0.509,0.025-0.773l-2.033,1.724
	c-0.079,0.062-0.155,0.1-0.233,0.116c-0.078,0.018-0.151,0.021-0.222,0.009c-0.069-0.012-0.13-0.035-0.183-0.071
	c-0.053-0.035-0.096-0.073-0.13-0.113l-0.508-0.707l3.583-3.092h1.325v10.751H78.697z"/>
<rect x="67.832" y="189" fill="#FFFFFF" width="13" height="1"/>
<path fill="#FFFFFF" d="M62.241,192.191l-0.261,0.455l-0.939-0.55c-0.066-0.04-0.127-0.082-0.183-0.124
	c-0.055-0.043-0.104-0.095-0.144-0.153c0.055,0.131,0.083,0.269,0.083,0.416v1.079h-0.528v-1.073c0-0.074,0.005-0.144,0.014-0.208
	c0.009-0.065,0.029-0.129,0.059-0.192c-0.041,0.054-0.087,0.099-0.139,0.14c-0.051,0.041-0.109,0.08-0.172,0.116l-0.934,0.544
	l-0.261-0.455l0.933-0.544c0.067-0.037,0.132-0.067,0.195-0.093c0.063-0.022,0.13-0.038,0.201-0.045
	c-0.142-0.02-0.273-0.068-0.396-0.146l-0.938-0.549l0.261-0.456l0.939,0.55c0.066,0.041,0.127,0.084,0.18,0.128
	c0.054,0.044,0.101,0.096,0.142,0.155c-0.03-0.063-0.051-0.128-0.063-0.199c-0.013-0.07-0.02-0.143-0.02-0.217v-1.084h0.528v1.073
	c0,0.073-0.004,0.145-0.014,0.213s-0.027,0.135-0.053,0.198c0.041-0.056,0.087-0.104,0.139-0.146
	c0.052-0.041,0.109-0.081,0.172-0.122l0.934-0.539l0.261,0.456l-0.933,0.538c-0.063,0.037-0.125,0.07-0.187,0.095
	c-0.061,0.026-0.125,0.042-0.192,0.052c0.126,0.014,0.252,0.06,0.378,0.138L62.241,192.191z"/>
<path fill="none" d="M147.917,143.748c-2.298,0-4.167,1.869-4.167,4.167s1.869,4.167,4.167,4.167s4.167-1.869,4.167-4.167
	S150.214,143.748,147.917,143.748z"/>
<path fill="#FFFFFF" d="M230.978,204.17l-73.932-52.945c0.377-1.035,0.593-2.146,0.593-3.31c0-3.053-1.418-5.779-3.626-7.563
	l20.277-49.543l-5.14-2.104l-20.276,49.536c-0.315-0.031-0.635-0.048-0.958-0.048c-5.361,0-9.723,4.362-9.723,9.723
	c0,5.36,4.361,9.723,9.723,9.723c2.183,0,4.193-0.731,5.817-1.951l74.012,53.001L230.978,204.17z M147.917,152.082
	c-2.298,0-4.167-1.869-4.167-4.167s1.869-4.167,4.167-4.167s4.167,1.869,4.167,4.167S150.214,152.082,147.917,152.082z"/>
</svg>
